<?xml version="1.0" encoding="utf-8"?>
<!-- Generator: Adobe Illustrator 26.0.1, SVG Export Plug-In . SVG Version: 6.00 Build 0)  -->
<svg version="1.1" id="Layer_1" xmlns="http://www.w3.org/2000/svg" xmlns:xlink="http://www.w3.org/1999/xlink" x="0px" y="0px"
	 viewBox="0 0 2963 1520" style="enable-background:new 0 0 2963 1520;" xml:space="preserve">
	<style type="text/css">
	.st0{opacity:0.3;}
	.st1{fill:#FFB73D;}
	.st2{fill:#82632C;}
	</style>
	<g class="st0">
	<g>
		<g>
			<rect x="739.5" y="1046.1" class="st1" width="72.8" height="12.7"/>
			<rect x="826.8" y="1046.1" class="st1" width="72.8" height="12.7"/>
			<rect x="914.2" y="1046.1" class="st1" width="72.8" height="12.7"/>
		</g>
		<g>
			<rect x="739.5" y="1067" class="st1" width="72.8" height="12.7"/>
			<rect x="826.8" y="1067" class="st1" width="72.8" height="12.7"/>
			<rect x="914.2" y="1067" class="st1" width="72.8" height="12.7"/>
		</g>
		<g>
			<rect x="739.5" y="1087.9" class="st1" width="72.8" height="12.7"/>
			<rect x="826.8" y="1087.9" class="st1" width="72.8" height="12.7"/>
			<rect x="914.2" y="1087.9" class="st1" width="72.8" height="12.7"/>
		</g>
		<g>
			<rect x="739.5" y="1108.7" class="st1" width="72.8" height="12.7"/>
			<rect x="826.8" y="1108.7" class="st1" width="72.8" height="12.7"/>
			<rect x="914.2" y="1108.7" class="st1" width="72.8" height="12.7"/>
		</g>
		<g>
			<rect x="739.5" y="1129.6" class="st1" width="72.8" height="12.7"/>
			<rect x="826.8" y="1129.6" class="st1" width="72.8" height="12.7"/>
			<rect x="914.2" y="1129.6" class="st1" width="72.8" height="12.7"/>
		</g>
		<g>
			<rect x="739.5" y="1150.5" class="st1" width="72.8" height="12.7"/>
			<rect x="826.8" y="1150.5" class="st1" width="72.8" height="12.7"/>
			<rect x="914.2" y="1150.5" class="st1" width="72.8" height="12.7"/>
		</g>
		<g>
			<rect x="739.5" y="1171.4" class="st1" width="72.8" height="12.7"/>
			<rect x="826.8" y="1171.4" class="st1" width="72.8" height="12.7"/>
			<rect x="914.2" y="1171.4" class="st1" width="72.8" height="12.7"/>
		</g>
		<g>
			<rect x="739.5" y="1192.2" class="st1" width="72.8" height="12.7"/>
			<rect x="826.8" y="1192.2" class="st1" width="72.8" height="12.7"/>
			<rect x="914.2" y="1192.2" class="st1" width="72.8" height="12.7"/>
		</g>
		<g>
			<rect x="739.5" y="1213.1" class="st1" width="72.8" height="12.7"/>
			<rect x="826.8" y="1213.1" class="st1" width="72.8" height="12.7"/>
			<rect x="914.2" y="1213.1" class="st1" width="72.8" height="12.7"/>
		</g>
		<g>
			<rect x="739.5" y="1234" class="st1" width="72.8" height="12.6"/>
			<rect x="826.8" y="1234" class="st1" width="72.8" height="12.6"/>
			<rect x="914.2" y="1234" class="st1" width="72.8" height="12.6"/>
		</g>
		<g>
			<rect x="739.5" y="1254.9" class="st1" width="72.8" height="12.6"/>
			<rect x="826.8" y="1254.9" class="st1" width="72.8" height="12.6"/>
			<rect x="914.2" y="1254.9" class="st1" width="72.8" height="12.6"/>
		</g>
		<g>
			<rect x="739.5" y="1275.7" class="st1" width="72.8" height="12.6"/>
			<rect x="826.8" y="1275.7" class="st1" width="72.8" height="12.6"/>
			<rect x="914.2" y="1275.7" class="st1" width="72.8" height="12.6"/>
		</g>
	</g>
	<g>
		<path class="st1" d="M809.2,1212v194.8h3.5v-191.3h101.1v191.3h3.5V1212H809.2z"/>
	</g>
	<g>
		<rect x="819.3" y="1221.4" class="st1" width="7.2" height="26.4"/>
		<rect x="819.3" y="1254.5" class="st1" width="7.2" height="26.5"/>
		<rect x="819.3" y="1287.7" class="st1" width="7.2" height="26.4"/>
		<rect x="819.3" y="1320.8" class="st1" width="7.2" height="26.5"/>
		<rect x="835.4" y="1221.4" class="st1" width="7.2" height="26.4"/>
		<rect x="835.4" y="1254.5" class="st1" width="7.2" height="26.5"/>
		<rect x="835.4" y="1287.7" class="st1" width="7.2" height="26.4"/>
		<rect x="835.4" y="1320.8" class="st1" width="7.2" height="26.5"/>
		<rect x="851.6" y="1221.4" class="st1" width="7.2" height="26.4"/>
		<rect x="851.6" y="1254.5" class="st1" width="7.2" height="26.5"/>
		<rect x="851.6" y="1287.7" class="st1" width="7.2" height="26.4"/>
		<rect x="851.6" y="1320.8" class="st1" width="7.2" height="26.5"/>
		<rect x="867.7" y="1221.4" class="st1" width="7.2" height="26.4"/>
		<rect x="867.7" y="1254.5" class="st1" width="7.2" height="26.5"/>
		<rect x="867.7" y="1287.7" class="st1" width="7.2" height="26.4"/>
		<rect x="867.7" y="1320.8" class="st1" width="7.2" height="26.5"/>
		<rect x="883.9" y="1221.4" class="st1" width="7.2" height="26.4"/>
		<rect x="883.9" y="1254.5" class="st1" width="7.2" height="26.5"/>
		<rect x="883.9" y="1287.7" class="st1" width="7.2" height="26.4"/>
		<rect x="883.9" y="1320.8" class="st1" width="7.2" height="26.5"/>
		<rect x="900" y="1221.4" class="st1" width="7.2" height="26.4"/>
		<rect x="900" y="1254.5" class="st1" width="7.2" height="26.5"/>
		<rect x="900" y="1287.7" class="st1" width="7.2" height="26.4"/>
		<rect x="900" y="1320.8" class="st1" width="7.2" height="26.5"/>
	</g>
	<g>
		<rect x="551.3" y="1115.4" class="st1" width="196.4" height="3.1"/>
		<rect x="551.3" y="1136.5" class="st1" width="196.4" height="3.1"/>
		<rect x="551.3" y="1157.6" class="st1" width="196.4" height="3.1"/>
		<rect x="551.3" y="1178.7" class="st1" width="196.4" height="3.1"/>
		<rect x="551.3" y="1199.9" class="st1" width="196.4" height="3.1"/>
		<rect x="551.3" y="1221" class="st1" width="196.4" height="3.1"/>
		<rect x="551.3" y="1242.1" class="st1" width="196.4" height="3.1"/>
		<rect x="551.3" y="1263.2" class="st1" width="196.4" height="3.1"/>
		<rect x="551.3" y="1284.4" class="st1" width="196.4" height="3.1"/>
		<rect x="551.3" y="1305.5" class="st1" width="196.4" height="3.1"/>
		<rect x="551.3" y="1326.6" class="st1" width="196.4" height="3.1"/>
	</g>
	<g>
		<rect x="1650.1" y="1069.3" class="st1" width="17.6" height="17.6"/>
		<rect x="1680.9" y="1069.3" class="st1" width="17.6" height="17.6"/>
		<rect x="1711.8" y="1069.3" class="st1" width="17.6" height="17.6"/>
		<rect x="1742.6" y="1069.3" class="st1" width="17.6" height="17.6"/>
		<rect x="1773.4" y="1069.3" class="st1" width="17.6" height="17.6"/>
		<rect x="1804.2" y="1069.3" class="st1" width="17.6" height="17.6"/>
		<rect x="1835" y="1069.3" class="st1" width="17.6" height="17.6"/>
	</g>
	<g>
		<rect x="1650.1" y="1096.1" class="st1" width="17.6" height="17.6"/>
		<rect x="1680.9" y="1096.1" class="st1" width="17.6" height="17.6"/>
		<rect x="1711.8" y="1096.1" class="st1" width="17.6" height="17.6"/>
		<rect x="1742.6" y="1096.1" class="st1" width="17.6" height="17.6"/>
		<rect x="1773.4" y="1096.1" class="st1" width="17.6" height="17.6"/>
		<rect x="1804.2" y="1096.1" class="st1" width="17.6" height="17.6"/>
		<rect x="1835" y="1096.1" class="st1" width="17.6" height="17.6"/>
	</g>
	<g>
		<rect x="1650.1" y="1122.9" class="st1" width="17.6" height="17.6"/>
		<rect x="1680.9" y="1122.9" class="st1" width="17.6" height="17.6"/>
		<rect x="1711.8" y="1122.9" class="st1" width="17.6" height="17.6"/>
		<rect x="1742.6" y="1122.9" class="st1" width="17.6" height="17.6"/>
		<rect x="1773.4" y="1122.9" class="st1" width="17.6" height="17.6"/>
		<rect x="1804.2" y="1122.9" class="st1" width="17.6" height="17.6"/>
		<rect x="1835" y="1122.9" class="st1" width="17.6" height="17.6"/>
	</g>
	<g>
		<rect x="1650.1" y="1149.7" class="st1" width="17.6" height="17.6"/>
		<rect x="1680.9" y="1149.7" class="st1" width="17.6" height="17.6"/>
		<rect x="1711.8" y="1149.7" class="st1" width="17.6" height="17.6"/>
		<rect x="1742.6" y="1149.7" class="st1" width="17.6" height="17.6"/>
		<rect x="1773.4" y="1149.7" class="st1" width="17.6" height="17.6"/>
		<rect x="1804.2" y="1149.7" class="st1" width="17.6" height="17.6"/>
		<rect x="1835" y="1149.7" class="st1" width="17.6" height="17.6"/>
	</g>
	<g>
		<rect x="1650.1" y="1176.5" class="st1" width="17.6" height="17.6"/>
		<rect x="1680.9" y="1176.5" class="st1" width="17.6" height="17.6"/>
		<rect x="1711.8" y="1176.5" class="st1" width="17.6" height="17.6"/>
		<rect x="1742.6" y="1176.5" class="st1" width="17.6" height="17.6"/>
		<rect x="1773.4" y="1176.5" class="st1" width="17.6" height="17.6"/>
		<rect x="1804.2" y="1176.5" class="st1" width="17.6" height="17.6"/>
		<rect x="1835" y="1176.5" class="st1" width="17.6" height="17.6"/>
	</g>
	<g>
		<rect x="1650.1" y="1203.2" class="st1" width="17.6" height="17.6"/>
		<rect x="1680.9" y="1203.2" class="st1" width="17.6" height="17.6"/>
		<rect x="1711.8" y="1203.2" class="st1" width="17.6" height="17.6"/>
		<rect x="1742.6" y="1203.2" class="st1" width="17.6" height="17.6"/>
		<rect x="1773.4" y="1203.2" class="st1" width="17.6" height="17.6"/>
		<rect x="1804.2" y="1203.2" class="st1" width="17.6" height="17.6"/>
		<rect x="1835" y="1203.2" class="st1" width="17.6" height="17.6"/>
	</g>
	<g>
		<rect x="1650.1" y="1230" class="st1" width="17.6" height="17.6"/>
		<rect x="1680.9" y="1230" class="st1" width="17.6" height="17.6"/>
		<rect x="1711.8" y="1230" class="st1" width="17.6" height="17.6"/>
		<rect x="1742.6" y="1230" class="st1" width="17.6" height="17.6"/>
		<rect x="1773.4" y="1230" class="st1" width="17.6" height="17.6"/>
		<rect x="1804.2" y="1230" class="st1" width="17.6" height="17.6"/>
		<rect x="1835" y="1230" class="st1" width="17.6" height="17.6"/>
	</g>
	<g>
		<rect x="1650.1" y="1256.8" class="st1" width="17.6" height="17.6"/>
		<rect x="1680.9" y="1256.8" class="st1" width="17.6" height="17.6"/>
		<rect x="1711.8" y="1256.8" class="st1" width="17.6" height="17.6"/>
		<rect x="1742.6" y="1256.8" class="st1" width="17.6" height="17.6"/>
		<rect x="1773.4" y="1256.8" class="st1" width="17.6" height="17.6"/>
		<rect x="1804.2" y="1256.8" class="st1" width="17.6" height="17.6"/>
		<rect x="1835" y="1256.8" class="st1" width="17.6" height="17.6"/>
	</g>
	<g>
		<rect x="1650.1" y="1283.6" class="st1" width="17.6" height="17.6"/>
		<rect x="1680.9" y="1283.6" class="st1" width="17.6" height="17.6"/>
		<rect x="1711.8" y="1283.6" class="st1" width="17.6" height="17.6"/>
		<rect x="1742.6" y="1283.6" class="st1" width="17.6" height="17.6"/>
		<rect x="1773.4" y="1283.6" class="st1" width="17.6" height="17.6"/>
		<rect x="1804.2" y="1283.6" class="st1" width="17.6" height="17.6"/>
		<rect x="1835" y="1283.6" class="st1" width="17.6" height="17.6"/>
	</g>
	<g>
		<g>
			<rect x="1663.3" y="1012.3" class="st1" width="10.8" height="15.1"/>
			<rect x="1678.3" y="1012.3" class="st1" width="10.8" height="15.1"/>
			<rect x="1693.4" y="1012.3" class="st1" width="10.8" height="15.1"/>
			<rect x="1708.4" y="1012.3" class="st1" width="10.8" height="15.1"/>
			<rect x="1723.4" y="1012.3" class="st1" width="10.8" height="15.1"/>
			<rect x="1738.5" y="1012.3" class="st1" width="10.8" height="15.1"/>
			<rect x="1753.5" y="1012.3" class="st1" width="10.8" height="15.1"/>
			<rect x="1768.6" y="1012.3" class="st1" width="10.8" height="15.1"/>
			<rect x="1783.6" y="1012.3" class="st1" width="10.8" height="15.1"/>
			<rect x="1798.7" y="1012.3" class="st1" width="10.8" height="15.1"/>
			<rect x="1813.7" y="1012.3" class="st1" width="10.8" height="15.1"/>
			<rect x="1828.7" y="1012.3" class="st1" width="10.8" height="15.1"/>
		</g>
		<g>
			<rect x="1663.3" y="1034.8" class="st1" width="10.8" height="15.1"/>
			<rect x="1678.3" y="1034.8" class="st1" width="10.8" height="15.1"/>
			<rect x="1693.4" y="1034.8" class="st1" width="10.8" height="15.1"/>
			<rect x="1708.4" y="1034.8" class="st1" width="10.8" height="15.1"/>
			<rect x="1723.4" y="1034.8" class="st1" width="10.8" height="15.1"/>
			<rect x="1738.5" y="1034.8" class="st1" width="10.8" height="15.1"/>
			<rect x="1753.5" y="1034.8" class="st1" width="10.8" height="15.1"/>
			<rect x="1768.6" y="1034.8" class="st1" width="10.8" height="15.1"/>
			<rect x="1783.6" y="1034.8" class="st1" width="10.8" height="15.1"/>
			<rect x="1798.7" y="1034.8" class="st1" width="10.8" height="15.1"/>
			<rect x="1813.7" y="1034.8" class="st1" width="10.8" height="15.1"/>
			<rect x="1828.7" y="1034.8" class="st1" width="10.8" height="15.1"/>
		</g>
	</g>
	<g>
		<rect x="1668.4" y="843.8" class="st1" width="142" height="4.9"/>
		<rect x="1692.5" y="854.8" class="st1" width="142" height="4.9"/>
		<rect x="1668.4" y="865.8" class="st1" width="142" height="4.9"/>
		<rect x="1692.5" y="876.8" class="st1" width="142" height="4.9"/>
		<rect x="1668.4" y="887.8" class="st1" width="142" height="4.9"/>
		<rect x="1692.5" y="898.8" class="st1" width="142" height="4.9"/>
		<rect x="1668.4" y="909.8" class="st1" width="142" height="4.9"/>
		<rect x="1692.5" y="920.7" class="st1" width="142" height="4.9"/>
		<rect x="1668.4" y="931.7" class="st1" width="142" height="4.9"/>
		<rect x="1692.5" y="942.7" class="st1" width="142" height="4.9"/>
		<rect x="1668.4" y="953.7" class="st1" width="142" height="4.9"/>
		<rect x="1692.5" y="964.7" class="st1" width="142" height="4.9"/>
		<rect x="1668.4" y="975.7" class="st1" width="142" height="4.9"/>
		<rect x="1692.5" y="986.7" class="st1" width="142" height="4.9"/>
	</g>
	<g>
		<rect x="1683.2" y="813.7" class="st1" width="1.9" height="13.1"/>
		<rect x="1688.3" y="813.7" class="st1" width="1.9" height="13.1"/>
		<rect x="1693.3" y="813.7" class="st1" width="1.9" height="13.1"/>
		<rect x="1698.4" y="813.7" class="st1" width="1.9" height="13.1"/>
		<rect x="1703.4" y="813.7" class="st1" width="1.9" height="13.1"/>
		<rect x="1708.4" y="813.7" class="st1" width="1.9" height="13.1"/>
		<rect x="1713.5" y="813.7" class="st1" width="1.9" height="13.1"/>
		<rect x="1718.5" y="813.7" class="st1" width="1.9" height="13.1"/>
		<rect x="1723.6" y="813.7" class="st1" width="1.9" height="13.1"/>
		<rect x="1728.6" y="813.7" class="st1" width="1.9" height="13.1"/>
		<rect x="1733.7" y="813.7" class="st1" width="1.9" height="13.1"/>
	</g>
	<g>
		<rect x="1767.5" y="813.7" class="st1" width="1.9" height="13.1"/>
		<rect x="1772.5" y="813.7" class="st1" width="1.9" height="13.1"/>
		<rect x="1777.5" y="813.7" class="st1" width="1.9" height="13.1"/>
		<rect x="1782.5" y="813.7" class="st1" width="1.9" height="13.1"/>
		<rect x="1787.4" y="813.7" class="st1" width="1.9" height="13.1"/>
		<rect x="1792.4" y="813.7" class="st1" width="1.9" height="13.1"/>
		<rect x="1797.4" y="813.7" class="st1" width="1.9" height="13.1"/>
		<rect x="1802.4" y="813.7" class="st1" width="1.9" height="13.1"/>
		<rect x="1807.3" y="813.7" class="st1" width="1.9" height="13.1"/>
		<rect x="1812.3" y="813.7" class="st1" width="1.9" height="13.1"/>
		<rect x="1817.3" y="813.7" class="st1" width="1.9" height="13.1"/>
	</g>
	<g>
		<rect x="1173.7" y="754.5" class="st1" width="25" height="6.5"/>
		<rect x="1207.2" y="754.5" class="st1" width="25" height="6.5"/>
		<rect x="1251.3" y="754.5" class="st1" width="25" height="6.5"/>
	</g>
	<g>
		<rect x="1173.7" y="773.7" class="st1" width="25" height="6.5"/>
		<rect x="1207.2" y="773.7" class="st1" width="25" height="6.5"/>
		<rect x="1251.3" y="773.7" class="st1" width="25" height="6.5"/>
	</g>
	<g>
		<rect x="1173.7" y="792.8" class="st1" width="25" height="6.5"/>
		<rect x="1207.2" y="792.8" class="st1" width="25" height="6.5"/>
		<rect x="1251.3" y="792.8" class="st1" width="25" height="6.5"/>
	</g>
	<g>
		<rect x="1173.7" y="812" class="st1" width="25" height="6.5"/>
		<rect x="1207.2" y="812" class="st1" width="25" height="6.5"/>
		<rect x="1251.3" y="812" class="st1" width="25" height="6.5"/>
	</g>
	<g>
		<rect x="1173.7" y="831.1" class="st1" width="25" height="6.5"/>
		<rect x="1207.2" y="831.1" class="st1" width="25" height="6.5"/>
		<rect x="1251.3" y="831.1" class="st1" width="25" height="6.5"/>
	</g>
	<g>
		<rect x="1173.7" y="850.2" class="st1" width="25" height="6.5"/>
		<rect x="1207.2" y="850.2" class="st1" width="25" height="6.5"/>
		<rect x="1251.3" y="850.2" class="st1" width="25" height="6.5"/>
	</g>
	<g>
		<rect x="1173.7" y="869.4" class="st1" width="25" height="6.5"/>
		<rect x="1207.2" y="869.4" class="st1" width="25" height="6.5"/>
		<rect x="1251.3" y="869.4" class="st1" width="25" height="6.5"/>
	</g>
	<g>
		<rect x="1173.7" y="888.5" class="st1" width="25" height="6.5"/>
		<rect x="1207.2" y="888.5" class="st1" width="25" height="6.5"/>
		<rect x="1251.3" y="888.5" class="st1" width="25" height="6.5"/>
	</g>
	<g>
		<rect x="1173.7" y="907.7" class="st1" width="25" height="6.5"/>
		<rect x="1207.2" y="907.7" class="st1" width="25" height="6.5"/>
		<rect x="1251.3" y="907.7" class="st1" width="25" height="6.5"/>
	</g>
	<g>
		<rect x="1173.7" y="926.8" class="st1" width="25" height="6.5"/>
		<rect x="1207.2" y="926.8" class="st1" width="25" height="6.5"/>
		<rect x="1251.3" y="926.8" class="st1" width="25" height="6.5"/>
	</g>
	<g>
		<rect x="1173.7" y="945.9" class="st1" width="25" height="6.5"/>
		<rect x="1207.2" y="945.9" class="st1" width="25" height="6.5"/>
		<rect x="1251.3" y="945.9" class="st1" width="25" height="6.5"/>
	</g>
	<g>
		<rect x="1173.7" y="965.1" class="st1" width="25" height="6.5"/>
		<rect x="1207.2" y="965.1" class="st1" width="25" height="6.5"/>
		<rect x="1251.3" y="965.1" class="st1" width="25" height="6.5"/>
	</g>
	<g>
		<rect x="1173.7" y="984.2" class="st1" width="25" height="6.5"/>
		<rect x="1207.2" y="984.2" class="st1" width="25" height="6.5"/>
		<rect x="1251.3" y="984.2" class="st1" width="25" height="6.5"/>
	</g>
	<g>
		<rect x="1173.7" y="1003.4" class="st1" width="25" height="6.5"/>
		<rect x="1207.2" y="1003.4" class="st1" width="25" height="6.5"/>
		<rect x="1251.3" y="1003.4" class="st1" width="25" height="6.5"/>
	</g>
	<g>
		<rect x="1173.7" y="1022.5" class="st1" width="25" height="6.5"/>
		<rect x="1207.2" y="1022.5" class="st1" width="25" height="6.5"/>
		<rect x="1251.3" y="1022.5" class="st1" width="25" height="6.5"/>
	</g>
	<g>
		<rect x="1173.7" y="1041.6" class="st1" width="25" height="6.5"/>
		<rect x="1207.2" y="1041.6" class="st1" width="25" height="6.5"/>
		<rect x="1251.3" y="1041.6" class="st1" width="25" height="6.5"/>
	</g>
	<g>
		<rect x="1173.7" y="1060.8" class="st1" width="25" height="6.5"/>
		<rect x="1207.2" y="1060.8" class="st1" width="25" height="6.5"/>
		<rect x="1251.3" y="1060.8" class="st1" width="25" height="6.5"/>
	</g>
	<g>
		<rect x="1173.7" y="1079.9" class="st1" width="25" height="6.5"/>
		<rect x="1207.2" y="1079.9" class="st1" width="25" height="6.5"/>
		<rect x="1251.3" y="1079.9" class="st1" width="25" height="6.5"/>
	</g>
	<g>
		<rect x="1173.7" y="1099.1" class="st1" width="25" height="6.5"/>
		<rect x="1207.2" y="1099.1" class="st1" width="25" height="6.5"/>
		<rect x="1251.3" y="1099.1" class="st1" width="25" height="6.5"/>
	</g>
	<g>
		<rect x="1173.7" y="1118.2" class="st1" width="25" height="6.5"/>
		<rect x="1207.2" y="1118.2" class="st1" width="25" height="6.5"/>
		<rect x="1251.3" y="1118.2" class="st1" width="25" height="6.5"/>
	</g>
	<g>
		<rect x="1173.7" y="1137.4" class="st1" width="25" height="6.5"/>
		<rect x="1207.2" y="1137.4" class="st1" width="25" height="6.5"/>
		<rect x="1251.3" y="1137.4" class="st1" width="25" height="6.5"/>
	</g>
	<g>
		<rect x="1173.7" y="1156.5" class="st1" width="25" height="6.5"/>
		<rect x="1207.2" y="1156.5" class="st1" width="25" height="6.5"/>
		<rect x="1251.3" y="1156.5" class="st1" width="25" height="6.5"/>
	</g>
	<g>
		<rect x="1173.7" y="1175.6" class="st1" width="25" height="6.5"/>
		<rect x="1207.2" y="1175.6" class="st1" width="25" height="6.5"/>
		<rect x="1251.3" y="1175.6" class="st1" width="25" height="6.5"/>
	</g>
	<g>
		<rect x="1173.7" y="1194.8" class="st1" width="25" height="6.5"/>
		<rect x="1207.2" y="1194.8" class="st1" width="25" height="6.5"/>
		<rect x="1251.3" y="1194.8" class="st1" width="25" height="6.5"/>
	</g>
	<g>
		<rect x="1173.7" y="1213.9" class="st1" width="25" height="6.5"/>
		<rect x="1207.2" y="1213.9" class="st1" width="25" height="6.5"/>
		<rect x="1251.3" y="1213.9" class="st1" width="25" height="6.5"/>
	</g>
	<g>
		<rect x="1173.7" y="1233.1" class="st1" width="25" height="6.5"/>
		<rect x="1207.2" y="1233.1" class="st1" width="25" height="6.5"/>
		<rect x="1251.3" y="1233.1" class="st1" width="25" height="6.5"/>
	</g>
	<g>
		<rect x="1173.7" y="1252.2" class="st1" width="25" height="6.5"/>
		<rect x="1207.2" y="1252.2" class="st1" width="25" height="6.5"/>
		<rect x="1251.3" y="1252.2" class="st1" width="25" height="6.5"/>
	</g>
	<g>
		<rect x="1173.7" y="1271.3" class="st1" width="25" height="6.5"/>
		<rect x="1207.2" y="1271.3" class="st1" width="25" height="6.5"/>
		<rect x="1251.3" y="1271.3" class="st1" width="25" height="6.5"/>
	</g>
	<g>
		<rect x="1173.7" y="1290.5" class="st1" width="25" height="6.5"/>
		<rect x="1207.2" y="1290.5" class="st1" width="25" height="6.5"/>
		<rect x="1251.3" y="1290.5" class="st1" width="25" height="6.5"/>
	</g>
	<g>
		<rect x="1173.7" y="1309.6" class="st1" width="25" height="6.5"/>
		<rect x="1207.2" y="1309.6" class="st1" width="25" height="6.5"/>
		<rect x="1251.3" y="1309.6" class="st1" width="25" height="6.5"/>
	</g>
	<g>
		<rect x="1173.7" y="1328.8" class="st1" width="25" height="6.5"/>
		<rect x="1207.2" y="1328.8" class="st1" width="25" height="6.5"/>
		<rect x="1251.3" y="1328.8" class="st1" width="25" height="6.5"/>
	</g>
	<g>
		<rect x="1173.7" y="1347.9" class="st1" width="25" height="6.5"/>
		<rect x="1207.2" y="1347.9" class="st1" width="25" height="6.5"/>
		<rect x="1251.3" y="1347.9" class="st1" width="25" height="6.5"/>
	</g>
	<rect x="1927.3" y="1327.5" class="st1" width="54.9" height="79.3"/>
	<g>
		<rect x="1869.9" y="1024.2" class="st1" width="10.6" height="24.5"/>
		<rect x="1888.2" y="1024.2" class="st1" width="10.6" height="24.5"/>
		<rect x="1916.8" y="1024.2" class="st1" width="10.6" height="24.5"/>
		<rect x="1935.2" y="1024.2" class="st1" width="10.6" height="24.5"/>
		<rect x="1963.8" y="1024.2" class="st1" width="10.6" height="24.5"/>
		<rect x="1982.1" y="1024.2" class="st1" width="10.6" height="24.5"/>
		<rect x="2010.7" y="1024.2" class="st1" width="10.6" height="24.5"/>
		<rect x="2029.1" y="1024.2" class="st1" width="10.6" height="24.5"/>
	</g>
	<g>
		<rect x="1869.9" y="1057.9" class="st1" width="10.6" height="24.5"/>
		<rect x="1888.2" y="1057.9" class="st1" width="10.6" height="24.5"/>
		<rect x="1916.8" y="1057.9" class="st1" width="10.6" height="24.5"/>
		<rect x="1935.2" y="1057.9" class="st1" width="10.6" height="24.5"/>
		<rect x="1963.8" y="1057.9" class="st1" width="10.6" height="24.5"/>
		<rect x="1982.1" y="1057.9" class="st1" width="10.6" height="24.5"/>
		<rect x="2010.7" y="1057.9" class="st1" width="10.6" height="24.5"/>
		<rect x="2029.1" y="1057.9" class="st1" width="10.6" height="24.5"/>
	</g>
	<g>
		<rect x="1869.9" y="1091.5" class="st1" width="10.6" height="24.5"/>
		<rect x="1888.2" y="1091.5" class="st1" width="10.6" height="24.5"/>
		<rect x="1916.8" y="1091.5" class="st1" width="10.6" height="24.5"/>
		<rect x="1935.2" y="1091.5" class="st1" width="10.6" height="24.5"/>
		<rect x="1963.8" y="1091.5" class="st1" width="10.6" height="24.5"/>
		<rect x="1982.1" y="1091.5" class="st1" width="10.6" height="24.5"/>
		<rect x="2010.7" y="1091.5" class="st1" width="10.6" height="24.5"/>
		<rect x="2029.1" y="1091.5" class="st1" width="10.6" height="24.5"/>
	</g>
	<g>
		<rect x="1869.9" y="1125.1" class="st1" width="10.6" height="24.5"/>
		<rect x="1888.2" y="1125.1" class="st1" width="10.6" height="24.5"/>
		<rect x="1916.8" y="1125.1" class="st1" width="10.6" height="24.5"/>
		<rect x="1935.2" y="1125.1" class="st1" width="10.6" height="24.5"/>
		<rect x="1963.8" y="1125.1" class="st1" width="10.6" height="24.5"/>
		<rect x="1982.1" y="1125.1" class="st1" width="10.6" height="24.5"/>
		<rect x="2010.7" y="1125.1" class="st1" width="10.6" height="24.5"/>
		<rect x="2029.1" y="1125.1" class="st1" width="10.6" height="24.5"/>
	</g>
	<g>
		<rect x="1869.9" y="1158.8" class="st1" width="10.6" height="24.5"/>
		<rect x="1888.2" y="1158.8" class="st1" width="10.6" height="24.5"/>
		<rect x="1916.8" y="1158.8" class="st1" width="10.6" height="24.5"/>
		<rect x="1935.2" y="1158.8" class="st1" width="10.6" height="24.5"/>
		<rect x="1963.8" y="1158.8" class="st1" width="10.6" height="24.5"/>
		<rect x="1982.1" y="1158.8" class="st1" width="10.6" height="24.5"/>
		<rect x="2010.7" y="1158.8" class="st1" width="10.6" height="24.5"/>
		<rect x="2029.1" y="1158.8" class="st1" width="10.6" height="24.5"/>
	</g>
	<g>
		<rect x="1869.9" y="1192.4" class="st1" width="10.6" height="24.5"/>
		<rect x="1888.2" y="1192.4" class="st1" width="10.6" height="24.5"/>
		<rect x="1916.8" y="1192.4" class="st1" width="10.6" height="24.5"/>
		<rect x="1935.2" y="1192.4" class="st1" width="10.6" height="24.5"/>
		<rect x="1963.8" y="1192.4" class="st1" width="10.6" height="24.5"/>
		<rect x="1982.1" y="1192.4" class="st1" width="10.6" height="24.5"/>
		<rect x="2010.7" y="1192.4" class="st1" width="10.6" height="24.5"/>
		<rect x="2029.1" y="1192.4" class="st1" width="10.6" height="24.5"/>
	</g>
	<g>
		<rect x="1869.9" y="1226" class="st1" width="10.6" height="24.5"/>
		<rect x="1888.2" y="1226" class="st1" width="10.6" height="24.5"/>
		<rect x="1916.8" y="1226" class="st1" width="10.6" height="24.5"/>
		<rect x="1935.2" y="1226" class="st1" width="10.6" height="24.5"/>
		<rect x="1963.8" y="1226" class="st1" width="10.6" height="24.5"/>
		<rect x="1982.1" y="1226" class="st1" width="10.6" height="24.5"/>
		<rect x="2010.7" y="1226" class="st1" width="10.6" height="24.5"/>
		<rect x="2029.1" y="1226" class="st1" width="10.6" height="24.5"/>
	</g>
	<g>
		<rect x="1869.9" y="1259.7" class="st1" width="10.6" height="24.5"/>
		<rect x="1888.2" y="1259.7" class="st1" width="10.6" height="24.5"/>
		<rect x="1916.8" y="1259.7" class="st1" width="10.6" height="24.5"/>
		<rect x="1935.2" y="1259.7" class="st1" width="10.6" height="24.5"/>
		<rect x="1963.8" y="1259.7" class="st1" width="10.6" height="24.5"/>
		<rect x="1982.1" y="1259.7" class="st1" width="10.6" height="24.5"/>
		<rect x="2010.7" y="1259.7" class="st1" width="10.6" height="24.5"/>
		<rect x="2029.1" y="1259.7" class="st1" width="10.6" height="24.5"/>
	</g>
	<g>
		<rect x="1869.9" y="1293.3" class="st1" width="10.6" height="24.5"/>
		<rect x="1888.2" y="1293.3" class="st1" width="10.6" height="24.5"/>
		<rect x="1916.8" y="1293.3" class="st1" width="10.6" height="24.5"/>
		<rect x="1935.2" y="1293.3" class="st1" width="10.6" height="24.5"/>
		<rect x="1963.8" y="1293.3" class="st1" width="10.6" height="24.5"/>
		<rect x="1982.1" y="1293.3" class="st1" width="10.6" height="24.5"/>
		<rect x="2010.7" y="1293.3" class="st1" width="10.6" height="24.5"/>
		<rect x="2029.1" y="1293.3" class="st1" width="10.6" height="24.5"/>
	</g>
	<g>
		<rect x="1855.8" y="1012.6" class="st1" width="197.8" height="5"/>
		<rect x="1855.8" y="1000.6" class="st1" width="197.8" height="5"/>
	</g>
	<g>
		<g>
			<rect x="1472.9" y="569.9" class="st1" width="1.7" height="836.8"/>
		</g>
		<g>
			<rect x="1483.4" y="569.9" class="st1" width="1.7" height="836.8"/>
		</g>
		<g>
			<rect x="1493.8" y="569.9" class="st1" width="1.7" height="836.8"/>
		</g>
		<g>
			<rect x="1504.2" y="569.9" class="st1" width="1.8" height="836.8"/>
		</g>
		<g>
			<rect x="1514.6" y="569.9" class="st1" width="1.8" height="836.8"/>
		</g>
		<g>
			<rect x="1525" y="569.9" class="st1" width="1.8" height="836.8"/>
		</g>
		<g>
			<rect x="1535.4" y="569.9" class="st1" width="1.8" height="836.8"/>
		</g>
		<g>
			<rect x="1545.8" y="569.9" class="st1" width="1.8" height="836.8"/>
		</g>
		<g>
			<rect x="1556.3" y="569.9" class="st1" width="1.7" height="836.8"/>
		</g>
		<g>
			<rect x="1566.6" y="569.9" class="st1" width="1.7" height="836.8"/>
		</g>
		<g>
			<rect x="1577.1" y="569.9" class="st1" width="1.8" height="836.8"/>
		</g>
		<g>
			<rect x="1587.5" y="569.9" class="st1" width="1.8" height="836.8"/>
		</g>
		<g>
			<rect x="1597.9" y="569.9" class="st1" width="1.8" height="836.8"/>
		</g>
		<g>
			<rect x="1608.3" y="569.9" class="st1" width="1.8" height="836.8"/>
		</g>
		<g>
			<rect x="1618.7" y="569.9" class="st1" width="1.7" height="836.8"/>
		</g>
		<g>
			<rect x="1629.1" y="569.9" class="st1" width="1.8" height="836.8"/>
		</g>
		<g>
			<rect x="1639.5" y="569.9" class="st1" width="1.8" height="836.8"/>
		</g>
	</g>
	<g>
		<g>
			<rect x="1461.2" y="608.4" class="st1" width="191.9" height="5"/>
		</g>
		<g>
			<rect x="1461.2" y="677.1" class="st1" width="191.9" height="5"/>
		</g>
		<g>
			<rect x="1461.2" y="745.7" class="st1" width="191.9" height="5"/>
		</g>
		<g>
			<rect x="1461.2" y="814.3" class="st1" width="191.9" height="5"/>
		</g>
		<g>
			<rect x="1461.2" y="882.9" class="st1" width="191.9" height="5"/>
		</g>
		<g>
			<rect x="1461.2" y="951.6" class="st1" width="191.9" height="5"/>
		</g>
		<g>
			<rect x="1461.2" y="1020.2" class="st1" width="191.9" height="5"/>
		</g>
		<g>
			<rect x="1461.2" y="1088.8" class="st1" width="191.9" height="5"/>
		</g>
		<g>
			<rect x="1461.2" y="1157.4" class="st1" width="191.9" height="5"/>
		</g>
		<g>
			<rect x="1461.2" y="1226" class="st1" width="191.9" height="5"/>
		</g>
		<g>
			<rect x="1461.2" y="1294.7" class="st1" width="191.9" height="5"/>
		</g>
		<g>
			<rect x="1461.2" y="1363.3" class="st1" width="191.9" height="5"/>
		</g>
	</g>
	<rect x="1263.5" y="998.9" class="st1" width="203.3" height="407.9"/>
	<rect x="1287.1" y="958.3" class="st1" width="156" height="32.9"/>
	<g>
		<rect x="1310" y="892.8" class="st1" width="20" height="65.3"/>
		<rect x="1358.1" y="905.9" class="st1" width="13.9" height="55"/>
		<rect x="1400.2" y="895.1" class="st1" width="20" height="65.3"/>
	</g>
	<rect x="2243.1" y="1259.7" class="st1" width="168.5" height="2.9"/>
	<rect x="2243.1" y="1277.3" class="st1" width="168.5" height="2.9"/>
	<rect x="2243.1" y="1294.8" class="st1" width="168.5" height="2.9"/>
	<rect x="2243.1" y="1312.4" class="st1" width="168.5" height="2.9"/>
	<rect x="2243.1" y="1330" class="st1" width="168.5" height="2.9"/>
	<rect x="2243.1" y="1347.5" class="st1" width="168.5" height="2.9"/>
	<rect x="2243.1" y="1365.1" class="st1" width="168.5" height="2.9"/>
	<rect x="2243.1" y="1382.6" class="st1" width="168.5" height="2.9"/>
	<rect x="999.4" y="867.4" class="st1" width="18.2" height="28.5"/>
	<rect x="1034.6" y="867.4" class="st1" width="18.2" height="28.5"/>
	<rect x="1069.8" y="867.4" class="st1" width="18.2" height="28.5"/>
	<rect x="1105" y="867.4" class="st1" width="18.2" height="28.5"/>
	<rect x="1140.2" y="867.4" class="st1" width="18.2" height="28.5"/>
	<rect x="999.4" y="913.2" class="st1" width="18.2" height="28.4"/>
	<rect x="1034.6" y="913.2" class="st1" width="18.2" height="28.4"/>
	<rect x="1069.8" y="913.2" class="st1" width="18.2" height="28.4"/>
	<rect x="1105" y="913.2" class="st1" width="18.2" height="28.4"/>
	<rect x="1140.2" y="913.2" class="st1" width="18.2" height="28.4"/>
	<rect x="999.4" y="958.9" class="st1" width="18.2" height="28.4"/>
	<rect x="1034.6" y="958.9" class="st1" width="18.2" height="28.4"/>
	<rect x="1069.8" y="958.9" class="st1" width="18.2" height="28.4"/>
	<rect x="1105" y="958.9" class="st1" width="18.2" height="28.4"/>
	<rect x="1140.2" y="958.9" class="st1" width="18.2" height="28.4"/>
	<rect x="999.4" y="1004.6" class="st1" width="18.2" height="28.5"/>
	<rect x="1034.6" y="1004.6" class="st1" width="18.2" height="28.5"/>
	<rect x="1069.8" y="1004.6" class="st1" width="18.2" height="28.5"/>
	<rect x="1105" y="1004.6" class="st1" width="18.2" height="28.5"/>
	<rect x="1140.2" y="1004.6" class="st1" width="18.2" height="28.5"/>
	<rect x="999.4" y="1050.4" class="st1" width="18.2" height="28.5"/>
	<rect x="1034.6" y="1050.4" class="st1" width="18.2" height="28.5"/>
	<rect x="1069.8" y="1050.4" class="st1" width="18.2" height="28.5"/>
	<rect x="1105" y="1050.4" class="st1" width="18.2" height="28.5"/>
	<rect x="1140.2" y="1050.4" class="st1" width="18.2" height="28.5"/>
	<rect x="999.4" y="1096.1" class="st1" width="18.2" height="28.5"/>
	<rect x="1034.6" y="1096.1" class="st1" width="18.2" height="28.5"/>
	<rect x="1069.8" y="1096.1" class="st1" width="18.2" height="28.5"/>
	<rect x="1105" y="1096.1" class="st1" width="18.2" height="28.5"/>
	<rect x="1140.2" y="1096.1" class="st1" width="18.2" height="28.5"/>
	<rect x="999.4" y="1141.9" class="st1" width="18.2" height="28.4"/>
	<rect x="1034.6" y="1141.9" class="st1" width="18.2" height="28.4"/>
	<rect x="1069.8" y="1141.9" class="st1" width="18.2" height="28.4"/>
	<rect x="1105" y="1141.9" class="st1" width="18.2" height="28.4"/>
	<rect x="1140.2" y="1141.9" class="st1" width="18.2" height="28.4"/>
	<rect x="999.4" y="1187.6" class="st1" width="18.2" height="28.4"/>
	<rect x="1034.6" y="1187.6" class="st1" width="18.2" height="28.4"/>
	<rect x="1069.8" y="1187.6" class="st1" width="18.2" height="28.4"/>
	<rect x="1105" y="1187.6" class="st1" width="18.2" height="28.4"/>
	<rect x="1140.2" y="1187.6" class="st1" width="18.2" height="28.4"/>
	<rect x="999.4" y="1233.4" class="st1" width="18.2" height="28.4"/>
	<rect x="1034.6" y="1233.4" class="st1" width="18.2" height="28.4"/>
	<rect x="1069.8" y="1233.4" class="st1" width="18.2" height="28.4"/>
	<rect x="1105" y="1233.4" class="st1" width="18.2" height="28.4"/>
	<rect x="1140.2" y="1233.4" class="st1" width="18.2" height="28.4"/>
	<rect x="999.4" y="1279.1" class="st1" width="18.2" height="28.4"/>
	<rect x="1034.6" y="1279.1" class="st1" width="18.2" height="28.4"/>
	<rect x="1069.8" y="1279.1" class="st1" width="18.2" height="28.4"/>
	<rect x="1105" y="1279.1" class="st1" width="18.2" height="28.4"/>
	<rect x="1140.2" y="1279.1" class="st1" width="18.2" height="28.4"/>
	<rect x="1046.8" y="1327.8" class="st1" width="64.2" height="78.9"/>
	<g>
		<g>
			<rect x="2067.8" y="844.6" class="st1" width="1.6" height="562.1"/>
		</g>
		<g>
			<rect x="2096.7" y="844.6" class="st1" width="1.7" height="562.1"/>
		</g>
		<g>
			<rect x="2125.6" y="844.6" class="st1" width="1.6" height="562.1"/>
		</g>
		<g>
			<rect x="2154.5" y="844.6" class="st1" width="1.6" height="562.1"/>
		</g>
		<g>
			<rect x="2183.4" y="844.6" class="st1" width="1.6" height="562.1"/>
		</g>
	</g>
	<g>
		<g>
			<rect x="2036.6" y="872.6" class="st1" width="179.5" height="1.7"/>
		</g>
		<g>
			<rect x="2036.6" y="906.2" class="st1" width="179.5" height="1.7"/>
		</g>
		<g>
			<rect x="2036.6" y="939.9" class="st1" width="179.5" height="1.7"/>
		</g>
		<g>
			<rect x="2036.6" y="973.5" class="st1" width="179.5" height="1.7"/>
		</g>
		<g>
			<rect x="2036.6" y="1007.1" class="st1" width="179.5" height="1.7"/>
		</g>
		<g>
			<rect x="2036.6" y="1040.8" class="st1" width="179.5" height="1.7"/>
		</g>
		<g>
			<rect x="2036.6" y="1074.4" class="st1" width="179.5" height="1.7"/>
		</g>
		<g>
			<rect x="2036.6" y="1108.1" class="st1" width="179.5" height="1.7"/>
		</g>
		<g>
			<rect x="2036.6" y="1141.7" class="st1" width="179.5" height="1.6"/>
		</g>
		<g>
			<rect x="2036.6" y="1175.3" class="st1" width="179.5" height="1.6"/>
		</g>
		<g>
			<rect x="2036.6" y="1209" class="st1" width="179.5" height="1.7"/>
		</g>
		<g>
			<rect x="2036.6" y="1242.6" class="st1" width="179.5" height="1.6"/>
		</g>
		<g>
			<rect x="2036.6" y="1276.2" class="st1" width="179.5" height="1.6"/>
		</g>
		<g>
			<rect x="2036.6" y="1309.9" class="st1" width="179.5" height="1.7"/>
		</g>
		<g>
			<rect x="2036.6" y="1343.5" class="st1" width="179.5" height="1.7"/>
		</g>
		<g>
			<rect x="2036.6" y="1377.2" class="st1" width="179.5" height="1.6"/>
		</g>
	</g>
	<g>
		<rect x="2101.9" y="806.5" class="st1" width="49" height="8.8"/>
		<rect x="2101.9" y="825.7" class="st1" width="49" height="8.8"/>
		<rect x="2101.9" y="845" class="st1" width="49" height="8.8"/>
		<rect x="2101.9" y="864.3" class="st1" width="49" height="8.8"/>
		<rect x="2101.9" y="883.5" class="st1" width="49" height="8.8"/>
		<rect x="2101.9" y="902.8" class="st1" width="49" height="8.8"/>
		<rect x="2101.9" y="922.1" class="st1" width="49" height="8.8"/>
		<rect x="2101.9" y="941.3" class="st1" width="49" height="8.8"/>
		<rect x="2101.9" y="960.6" class="st1" width="49" height="8.8"/>
		<rect x="2101.9" y="979.9" class="st1" width="49" height="8.8"/>
		<rect x="2101.9" y="999.1" class="st1" width="49" height="8.8"/>
		<rect x="2101.9" y="1018.4" class="st1" width="49" height="8.8"/>
		<rect x="2101.9" y="1037.7" class="st1" width="49" height="8.8"/>
		<rect x="2101.9" y="1056.9" class="st1" width="49" height="8.8"/>
		<rect x="2101.9" y="1076.2" class="st1" width="49" height="8.8"/>
		<rect x="2101.9" y="1095.5" class="st1" width="49" height="8.8"/>
		<rect x="2101.9" y="1114.7" class="st1" width="49" height="8.8"/>
		<rect x="2101.9" y="1134" class="st1" width="49" height="8.8"/>
		<rect x="2101.9" y="1153.3" class="st1" width="49" height="8.8"/>
		<rect x="2101.9" y="1172.5" class="st1" width="49" height="8.8"/>
		<rect x="2101.9" y="1191.8" class="st1" width="49" height="8.8"/>
		<rect x="2101.9" y="1211.1" class="st1" width="49" height="8.8"/>
		<rect x="2101.9" y="1230.3" class="st1" width="49" height="8.8"/>
		<rect x="2101.9" y="1249.6" class="st1" width="49" height="8.8"/>
		<rect x="2101.9" y="1268.9" class="st1" width="49" height="8.8"/>
		<rect x="2101.9" y="1288.1" class="st1" width="49" height="8.8"/>
		<rect x="2101.9" y="1307.4" class="st1" width="49" height="8.8"/>
		<rect x="2101.9" y="1326.7" class="st1" width="49" height="8.8"/>
		<rect x="2101.9" y="1345.9" class="st1" width="49" height="8.8"/>
		<rect x="2101.9" y="1365.2" class="st1" width="49" height="8.8"/>
		<rect x="2101.9" y="1384.5" class="st1" width="49" height="8.8"/>
	</g>
	<g>
		<rect x="1091" y="1283.4" class="st1" width="51.4" height="4.3"/>
		<rect x="1091" y="1296" class="st1" width="51.4" height="4.3"/>
		<rect x="1091" y="1308.7" class="st1" width="51.4" height="4.3"/>
		<rect x="1091" y="1321.4" class="st1" width="51.4" height="4.3"/>
		<rect x="1091" y="1334.1" class="st1" width="51.4" height="4.3"/>
		<rect x="1091" y="1346.7" class="st1" width="51.4" height="4.3"/>
		<rect x="1091" y="1359.4" class="st1" width="51.4" height="4.3"/>
		<rect x="1091" y="1372.1" class="st1" width="51.4" height="4.3"/>
		<rect x="1091" y="1384.7" class="st1" width="51.4" height="4.3"/>
		<rect x="1091" y="1397.4" class="st1" width="51.4" height="4.3"/>
		<rect x="1308.4" y="1283.4" class="st1" width="51.4" height="4.3"/>
		<rect x="1308.4" y="1296" class="st1" width="51.4" height="4.3"/>
		<rect x="1308.4" y="1308.7" class="st1" width="51.4" height="4.3"/>
		<rect x="1308.4" y="1321.4" class="st1" width="51.4" height="4.3"/>
		<rect x="1308.4" y="1334.1" class="st1" width="51.4" height="4.3"/>
		<rect x="1308.4" y="1346.7" class="st1" width="51.4" height="4.3"/>
		<rect x="1308.4" y="1359.4" class="st1" width="51.4" height="4.3"/>
		<rect x="1308.4" y="1372.1" class="st1" width="51.4" height="4.3"/>
		<rect x="1308.4" y="1384.7" class="st1" width="51.4" height="4.3"/>
		<rect x="1308.4" y="1397.4" class="st1" width="51.4" height="4.3"/>
	</g>
	<g>
		<g>
			<rect x="1176.3" y="1129.7" class="st1" width="1.7" height="221.4"/>
		</g>
		<g>
			<rect x="1187" y="1129.7" class="st1" width="1.7" height="221.4"/>
		</g>
		<g>
			<rect x="1197.7" y="1129.7" class="st1" width="1.7" height="221.4"/>
		</g>
		<g>
			<rect x="1208.4" y="1129.7" class="st1" width="1.7" height="221.4"/>
		</g>
		<g>
			<rect x="1219.1" y="1129.7" class="st1" width="1.7" height="221.4"/>
		</g>
		<g>
			<rect x="1229.9" y="1129.7" class="st1" width="1.7" height="221.4"/>
		</g>
		<g>
			<rect x="1240.6" y="1129.7" class="st1" width="1.7" height="221.4"/>
		</g>
		<g>
			<rect x="1251.3" y="1129.7" class="st1" width="1.7" height="221.4"/>
		</g>
		<g>
			<rect x="1262" y="1129.7" class="st1" width="1.7" height="221.4"/>
		</g>
		<g>
			<rect x="1272.7" y="1129.7" class="st1" width="1.7" height="221.4"/>
		</g>
	</g>
	<g>
		<g>
			<rect x="1856.6" y="1187.3" class="st1" width="240.7" height="1"/>
		</g>
		<g>
			<rect x="1856.6" y="1194.2" class="st1" width="240.7" height="1"/>
		</g>
		<g>
			<rect x="1856.6" y="1200.9" class="st1" width="240.7" height="1"/>
		</g>
		<g>
			<rect x="1856.6" y="1207.7" class="st1" width="240.7" height="1"/>
		</g>
		<g>
			<rect x="1856.6" y="1214.5" class="st1" width="240.7" height="1"/>
		</g>
		<g>
			<rect x="1856.6" y="1221.4" class="st1" width="240.7" height="1"/>
		</g>
		<g>
			<rect x="1856.6" y="1228.2" class="st1" width="240.7" height="1"/>
		</g>
		<g>
			<rect x="1856.6" y="1234.9" class="st1" width="240.7" height="1"/>
		</g>
		<g>
			<rect x="1856.6" y="1241.7" class="st1" width="240.7" height="1"/>
		</g>
		<g>
			<rect x="1856.6" y="1248.6" class="st1" width="240.7" height="1"/>
		</g>
		<g>
			<rect x="1856.6" y="1255.4" class="st1" width="240.7" height="1"/>
		</g>
		<g>
			<rect x="1856.6" y="1262.2" class="st1" width="240.7" height="1"/>
		</g>
		<g>
			<rect x="1856.6" y="1269" class="st1" width="240.7" height="1"/>
		</g>
		<g>
			<rect x="1856.6" y="1275.8" class="st1" width="240.7" height="1"/>
		</g>
		<g>
			<rect x="1856.6" y="1282.6" class="st1" width="240.7" height="1"/>
		</g>
		<g>
			<rect x="1856.6" y="1289.4" class="st1" width="240.7" height="1"/>
		</g>
		<g>
			<rect x="1856.6" y="1296.2" class="st1" width="240.7" height="1"/>
		</g>
		<g>
			<rect x="1856.6" y="1303" class="st1" width="240.7" height="1"/>
		</g>
		<g>
			<rect x="1856.6" y="1309.8" class="st1" width="240.7" height="1"/>
		</g>
		<g>
			<rect x="1856.6" y="1316.6" class="st1" width="240.7" height="1"/>
		</g>
		<g>
			<rect x="1856.6" y="1323.4" class="st1" width="240.7" height="1"/>
		</g>
		<g>
			<rect x="1856.6" y="1330.2" class="st1" width="240.7" height="1"/>
		</g>
		<g>
			<rect x="1856.6" y="1337" class="st1" width="240.7" height="1"/>
		</g>
		<g>
			<rect x="1856.6" y="1343.8" class="st1" width="240.7" height="1"/>
		</g>
		<g>
			<rect x="1856.6" y="1350.6" class="st1" width="240.7" height="1"/>
		</g>
		<g>
			<rect x="1856.6" y="1357.4" class="st1" width="240.7" height="1"/>
		</g>
		<g>
			<rect x="1856.6" y="1364.2" class="st1" width="240.7" height="1"/>
		</g>
		<g>
			<rect x="1856.6" y="1371" class="st1" width="240.7" height="1"/>
		</g>
		<g>
			<rect x="1856.6" y="1377.8" class="st1" width="240.7" height="1"/>
		</g>
		<g>
			<rect x="1856.6" y="1384.6" class="st1" width="240.7" height="1"/>
		</g>
		<g>
			<rect x="1856.6" y="1391.4" class="st1" width="240.7" height="1"/>
		</g>
		<g>
			<rect x="1856.6" y="1398.2" class="st1" width="240.7" height="1"/>
		</g>
	</g>
	<rect x="1792.1" y="1230.7" class="st1" width="240.7" height="3.2"/>
	<rect x="1792.1" y="1236.8" class="st1" width="240.7" height="3.2"/>
	<g>
		<g>
			<rect x="1795.1" y="1242.9" class="st1" width="4.8" height="14.7"/>
			<rect x="1795.1" y="1260.1" class="st1" width="4.8" height="14.7"/>
			<rect x="1795.1" y="1277.4" class="st1" width="4.8" height="14.7"/>
			<rect x="1795.1" y="1294.6" class="st1" width="4.8" height="14.7"/>
			<rect x="1795.1" y="1311.9" class="st1" width="4.8" height="14.7"/>
			<rect x="1795.1" y="1329.1" class="st1" width="4.8" height="14.7"/>
		</g>
		<g>
			<rect x="1802.1" y="1242.9" class="st1" width="4.8" height="14.7"/>
			<rect x="1802.1" y="1260.1" class="st1" width="4.8" height="14.7"/>
			<rect x="1802.1" y="1277.4" class="st1" width="4.8" height="14.7"/>
			<rect x="1802.1" y="1294.6" class="st1" width="4.8" height="14.7"/>
			<rect x="1802.1" y="1311.9" class="st1" width="4.8" height="14.7"/>
			<rect x="1802.1" y="1329.1" class="st1" width="4.8" height="14.7"/>
		</g>
	</g>
	<g>
		<g>
			<rect x="2017.3" y="1242.9" class="st1" width="4.8" height="14.7"/>
			<rect x="2017.3" y="1260.1" class="st1" width="4.8" height="14.7"/>
			<rect x="2017.3" y="1277.4" class="st1" width="4.8" height="14.7"/>
			<rect x="2017.3" y="1294.6" class="st1" width="4.8" height="14.7"/>
			<rect x="2017.3" y="1311.9" class="st1" width="4.8" height="14.7"/>
			<rect x="2017.3" y="1329.1" class="st1" width="4.8" height="14.7"/>
		</g>
		<g>
			<rect x="2024.3" y="1242.9" class="st1" width="4.8" height="14.7"/>
			<rect x="2024.3" y="1260.1" class="st1" width="4.8" height="14.7"/>
			<rect x="2024.3" y="1277.4" class="st1" width="4.8" height="14.7"/>
			<rect x="2024.3" y="1294.6" class="st1" width="4.8" height="14.7"/>
			<rect x="2024.3" y="1311.9" class="st1" width="4.8" height="14.7"/>
			<rect x="2024.3" y="1329.1" class="st1" width="4.8" height="14.7"/>
		</g>
	</g>
	<g>
		<rect x="1817.2" y="1242.9" class="st1" width="4.8" height="14.7"/>
		<rect x="1817.2" y="1260.1" class="st1" width="4.8" height="14.7"/>
		<rect x="1817.2" y="1277.4" class="st1" width="4.8" height="14.7"/>
		<rect x="1817.2" y="1294.6" class="st1" width="4.8" height="14.7"/>
		<rect x="1817.2" y="1311.9" class="st1" width="4.8" height="14.7"/>
		<rect x="1817.2" y="1329.1" class="st1" width="4.8" height="14.7"/>
	</g>
	<g>
		<rect x="1826" y="1242.9" class="st1" width="4.8" height="14.7"/>
		<rect x="1826" y="1260.1" class="st1" width="4.8" height="14.7"/>
		<rect x="1826" y="1277.4" class="st1" width="4.8" height="14.7"/>
		<rect x="1826" y="1294.6" class="st1" width="4.8" height="14.7"/>
		<rect x="1826" y="1311.9" class="st1" width="4.8" height="14.7"/>
		<rect x="1826" y="1329.1" class="st1" width="4.8" height="14.7"/>
	</g>
	<g>
		<rect x="1834.9" y="1242.9" class="st1" width="4.8" height="14.7"/>
		<rect x="1834.9" y="1260.1" class="st1" width="4.8" height="14.7"/>
		<rect x="1834.9" y="1277.4" class="st1" width="4.8" height="14.7"/>
		<rect x="1834.9" y="1294.6" class="st1" width="4.8" height="14.7"/>
		<rect x="1834.9" y="1311.9" class="st1" width="4.8" height="14.7"/>
		<rect x="1834.9" y="1329.1" class="st1" width="4.8" height="14.7"/>
	</g>
	<g>
		<rect x="1843.7" y="1242.9" class="st1" width="4.8" height="14.7"/>
		<rect x="1843.7" y="1260.1" class="st1" width="4.8" height="14.7"/>
		<rect x="1843.7" y="1277.4" class="st1" width="4.8" height="14.7"/>
		<rect x="1843.7" y="1294.6" class="st1" width="4.8" height="14.7"/>
		<rect x="1843.7" y="1311.9" class="st1" width="4.8" height="14.7"/>
		<rect x="1843.7" y="1329.1" class="st1" width="4.8" height="14.7"/>
	</g>
	<g>
		<rect x="1852.6" y="1242.9" class="st1" width="4.8" height="14.7"/>
		<rect x="1852.6" y="1260.1" class="st1" width="4.8" height="14.7"/>
		<rect x="1852.6" y="1277.4" class="st1" width="4.8" height="14.7"/>
		<rect x="1852.6" y="1294.6" class="st1" width="4.8" height="14.7"/>
		<rect x="1852.6" y="1311.9" class="st1" width="4.8" height="14.7"/>
		<rect x="1852.6" y="1329.1" class="st1" width="4.8" height="14.7"/>
	</g>
	<g>
		<rect x="1867.1" y="1242.9" class="st1" width="4.8" height="14.7"/>
		<rect x="1867.1" y="1260.1" class="st1" width="4.8" height="14.7"/>
		<rect x="1867.1" y="1277.4" class="st1" width="4.8" height="14.7"/>
		<rect x="1867.1" y="1294.6" class="st1" width="4.8" height="14.7"/>
		<rect x="1867.1" y="1311.9" class="st1" width="4.8" height="14.7"/>
		<rect x="1867.1" y="1329.1" class="st1" width="4.8" height="14.7"/>
	</g>
	<g>
		<rect x="1876.1" y="1242.9" class="st1" width="4.8" height="14.7"/>
		<rect x="1876.1" y="1260.1" class="st1" width="4.8" height="14.7"/>
		<rect x="1876.1" y="1277.4" class="st1" width="4.8" height="14.7"/>
		<rect x="1876.1" y="1294.6" class="st1" width="4.8" height="14.7"/>
		<rect x="1876.1" y="1311.9" class="st1" width="4.8" height="14.7"/>
		<rect x="1876.1" y="1329.1" class="st1" width="4.8" height="14.7"/>
	</g>
	<g>
		<rect x="1885.2" y="1242.9" class="st1" width="4.8" height="14.7"/>
		<rect x="1885.2" y="1260.1" class="st1" width="4.8" height="14.7"/>
		<rect x="1885.2" y="1277.4" class="st1" width="4.8" height="14.7"/>
		<rect x="1885.2" y="1294.6" class="st1" width="4.8" height="14.7"/>
		<rect x="1885.2" y="1311.9" class="st1" width="4.8" height="14.7"/>
		<rect x="1885.2" y="1329.1" class="st1" width="4.8" height="14.7"/>
	</g>
	<g>
		<rect x="1894.2" y="1242.9" class="st1" width="4.8" height="14.7"/>
		<rect x="1894.2" y="1260.1" class="st1" width="4.8" height="14.7"/>
		<rect x="1894.2" y="1277.4" class="st1" width="4.8" height="14.7"/>
		<rect x="1894.2" y="1294.6" class="st1" width="4.8" height="14.7"/>
		<rect x="1894.2" y="1311.9" class="st1" width="4.8" height="14.7"/>
		<rect x="1894.2" y="1329.1" class="st1" width="4.8" height="14.7"/>
	</g>
	<g>
		<rect x="1903.2" y="1242.9" class="st1" width="4.8" height="14.7"/>
		<rect x="1903.2" y="1260.1" class="st1" width="4.8" height="14.7"/>
		<rect x="1903.2" y="1277.4" class="st1" width="4.8" height="14.7"/>
		<rect x="1903.2" y="1294.6" class="st1" width="4.8" height="14.7"/>
		<rect x="1903.2" y="1311.9" class="st1" width="4.8" height="14.7"/>
		<rect x="1903.2" y="1329.1" class="st1" width="4.8" height="14.7"/>
	</g>
	<g>
		<rect x="1916.7" y="1242.9" class="st1" width="4.8" height="14.7"/>
		<rect x="1916.7" y="1260.1" class="st1" width="4.8" height="14.7"/>
		<rect x="1916.7" y="1277.4" class="st1" width="4.8" height="14.7"/>
		<rect x="1916.7" y="1294.6" class="st1" width="4.8" height="14.7"/>
		<rect x="1916.7" y="1311.9" class="st1" width="4.8" height="14.7"/>
		<rect x="1916.7" y="1329.1" class="st1" width="4.8" height="14.7"/>
	</g>
	<g>
		<rect x="1925.7" y="1242.9" class="st1" width="4.8" height="14.7"/>
		<rect x="1925.7" y="1260.1" class="st1" width="4.8" height="14.7"/>
		<rect x="1925.7" y="1277.4" class="st1" width="4.8" height="14.7"/>
		<rect x="1925.7" y="1294.6" class="st1" width="4.8" height="14.7"/>
		<rect x="1925.7" y="1311.9" class="st1" width="4.8" height="14.7"/>
		<rect x="1925.7" y="1329.1" class="st1" width="4.8" height="14.7"/>
	</g>
	<g>
		<rect x="1934.7" y="1242.9" class="st1" width="4.8" height="14.7"/>
		<rect x="1934.7" y="1260.1" class="st1" width="4.8" height="14.7"/>
		<rect x="1934.7" y="1277.4" class="st1" width="4.8" height="14.7"/>
		<rect x="1934.7" y="1294.6" class="st1" width="4.8" height="14.7"/>
		<rect x="1934.7" y="1311.9" class="st1" width="4.8" height="14.7"/>
		<rect x="1934.7" y="1329.1" class="st1" width="4.8" height="14.7"/>
	</g>
	<g>
		<rect x="1943.8" y="1242.9" class="st1" width="4.8" height="14.7"/>
		<rect x="1943.8" y="1260.1" class="st1" width="4.8" height="14.7"/>
		<rect x="1943.8" y="1277.4" class="st1" width="4.8" height="14.7"/>
		<rect x="1943.8" y="1294.6" class="st1" width="4.8" height="14.7"/>
		<rect x="1943.8" y="1311.9" class="st1" width="4.8" height="14.7"/>
		<rect x="1943.8" y="1329.1" class="st1" width="4.8" height="14.7"/>
	</g>
	<g>
		<rect x="1952.8" y="1242.9" class="st1" width="4.8" height="14.7"/>
		<rect x="1952.8" y="1260.1" class="st1" width="4.8" height="14.7"/>
		<rect x="1952.8" y="1277.4" class="st1" width="4.8" height="14.7"/>
		<rect x="1952.8" y="1294.6" class="st1" width="4.8" height="14.7"/>
		<rect x="1952.8" y="1311.9" class="st1" width="4.8" height="14.7"/>
		<rect x="1952.8" y="1329.1" class="st1" width="4.8" height="14.7"/>
	</g>
	<g>
		<rect x="1966.6" y="1242.9" class="st1" width="4.8" height="14.7"/>
		<rect x="1966.6" y="1260.1" class="st1" width="4.8" height="14.7"/>
		<rect x="1966.6" y="1277.4" class="st1" width="4.8" height="14.7"/>
		<rect x="1966.6" y="1294.6" class="st1" width="4.8" height="14.7"/>
		<rect x="1966.6" y="1311.9" class="st1" width="4.8" height="14.7"/>
		<rect x="1966.6" y="1329.1" class="st1" width="4.8" height="14.7"/>
	</g>
	<g>
		<rect x="1975.7" y="1242.9" class="st1" width="4.8" height="14.7"/>
		<rect x="1975.7" y="1260.1" class="st1" width="4.8" height="14.7"/>
		<rect x="1975.7" y="1277.4" class="st1" width="4.8" height="14.7"/>
		<rect x="1975.7" y="1294.6" class="st1" width="4.8" height="14.7"/>
		<rect x="1975.7" y="1311.9" class="st1" width="4.8" height="14.7"/>
		<rect x="1975.7" y="1329.1" class="st1" width="4.8" height="14.7"/>
	</g>
	<g>
		<rect x="1984.7" y="1242.9" class="st1" width="4.8" height="14.7"/>
		<rect x="1984.7" y="1260.1" class="st1" width="4.8" height="14.7"/>
		<rect x="1984.7" y="1277.4" class="st1" width="4.8" height="14.7"/>
		<rect x="1984.7" y="1294.6" class="st1" width="4.8" height="14.7"/>
		<rect x="1984.7" y="1311.9" class="st1" width="4.8" height="14.7"/>
		<rect x="1984.7" y="1329.1" class="st1" width="4.8" height="14.7"/>
	</g>
	<g>
		<rect x="1993.8" y="1242.9" class="st1" width="4.8" height="14.7"/>
		<rect x="1993.8" y="1260.1" class="st1" width="4.8" height="14.7"/>
		<rect x="1993.8" y="1277.4" class="st1" width="4.8" height="14.7"/>
		<rect x="1993.8" y="1294.6" class="st1" width="4.8" height="14.7"/>
		<rect x="1993.8" y="1311.9" class="st1" width="4.8" height="14.7"/>
		<rect x="1993.8" y="1329.1" class="st1" width="4.8" height="14.7"/>
	</g>
	<g>
		<rect x="2002.8" y="1242.9" class="st1" width="4.8" height="14.7"/>
		<rect x="2002.8" y="1260.1" class="st1" width="4.8" height="14.7"/>
		<rect x="2002.8" y="1277.4" class="st1" width="4.8" height="14.7"/>
		<rect x="2002.8" y="1294.6" class="st1" width="4.8" height="14.7"/>
		<rect x="2002.8" y="1311.9" class="st1" width="4.8" height="14.7"/>
		<rect x="2002.8" y="1329.1" class="st1" width="4.8" height="14.7"/>
	</g>
	<g>
		<rect x="1810.2" y="1226.9" class="st1" width="4.2" height="179.9"/>
		<rect x="1860.3" y="1226.9" class="st1" width="4.2" height="179.9"/>
		<rect x="1910.3" y="1226.9" class="st1" width="4.2" height="179.9"/>
		<rect x="1960.4" y="1226.9" class="st1" width="4.2" height="179.9"/>
		<rect x="2010.5" y="1226.9" class="st1" width="4.2" height="179.9"/>
	</g>
	<rect x="1445.1" y="1077.9" class="st1" width="171.6" height="328.9"/>
	<g>
		<rect x="1455.4" y="1094.6" class="st1" width="18.6" height="56.8"/>
		<rect x="1483.1" y="1094.6" class="st1" width="18.6" height="56.8"/>
	</g>
	<rect x="1516.2" y="1094.6" class="st1" width="27.4" height="56.8"/>
	<g>
		<rect x="1558.2" y="1094.6" class="st1" width="18.6" height="56.8"/>
		<rect x="1585.9" y="1094.6" class="st1" width="18.6" height="56.8"/>
	</g>
	<rect x="1445.1" y="1158.5" class="st1" width="171.6" height="3.6"/>
	<rect x="1445.1" y="1168.1" class="st1" width="171.6" height="3.6"/>
	<g>
		<rect x="1455.4" y="1182.4" class="st1" width="18.6" height="56.8"/>
		<rect x="1483.1" y="1182.4" class="st1" width="18.6" height="56.8"/>
	</g>
	<rect x="1516.2" y="1182.4" class="st1" width="27.4" height="56.8"/>
	<g>
		<rect x="1558.2" y="1182.4" class="st1" width="18.6" height="56.8"/>
		<rect x="1585.9" y="1182.4" class="st1" width="18.6" height="56.8"/>
	</g>
	<rect x="1445.1" y="1246.4" class="st1" width="171.6" height="3.6"/>
	<rect x="1445.1" y="1256" class="st1" width="171.6" height="3.6"/>
	<g>
		<rect x="1455.4" y="1270.3" class="st1" width="18.6" height="56.8"/>
		<rect x="1483.1" y="1270.3" class="st1" width="18.6" height="56.8"/>
	</g>
	<rect x="1516.2" y="1270.3" class="st1" width="27.4" height="56.8"/>
	<g>
		<rect x="1558.2" y="1270.3" class="st1" width="18.6" height="56.8"/>
		<rect x="1585.9" y="1270.3" class="st1" width="18.6" height="56.8"/>
	</g>
	<rect x="1445.1" y="1333.7" class="st1" width="171.6" height="3.6"/>
	<rect x="1445.1" y="1343.3" class="st1" width="171.6" height="3.6"/>
</g>
<g>
	<rect x="1384.3" y="1229.7" class="st2" width="56.9" height="192.7"/>
	<rect x="1351.8" y="1184" class="st2" width="56.9" height="146"/>
	<rect x="1328.4" y="1248.9" class="st2" width="56.9" height="124.2"/>
	<rect x="1523.2" y="1200.2" class="st2" width="56.9" height="221.5"/>
	<rect x="1565.5" y="1132.3" class="st2" width="29.2" height="192.7"/>
	<rect x="1428.8" y="1200" class="st2" width="43" height="192.7"/>
	<rect x="1565.5" y="1052.9" class="st2" width="33" height="101.4"/>
	<rect x="1570.1" y="1045.2" class="st2" width="23.9" height="90.5"/>
</g>
<g>
	<rect x="1830.2" y="1226.4" class="st2" width="63.3" height="196.9"/>
	<rect x="1894.7" y="1173.5" class="st2" width="34.2" height="248.3"/>
	<rect x="2003.9" y="1211.7" class="st2" width="25.7" height="211.1"/>
	<rect x="2026.7" y="1331.2" class="st2" width="63.7" height="90"/>
	<rect x="2056.3" y="1294.9" class="st2" width="63.7" height="90"/>
	<rect x="2040.9" y="1269.9" class="st2" width="63.7" height="140.2"/>
	<rect x="1716.3" y="1241.1" class="st2" width="128" height="180.9"/>
	<rect x="1632.3" y="1318.3" class="st2" width="97.9" height="101.6"/>
	<g>
		<rect x="1638.1" y="1128.3" class="st2" width="42.6" height="273"/>
		<rect x="1640.4" y="1111.7" class="st2" width="38.1" height="33.7"/>
		<rect x="1653.7" y="1094.1" class="st2" width="11.5" height="33.7"/>
	</g>
	<g>
		<polygon class="st2" points="1918.5,1171.2 1951.1,1171.2 1948.4,1155.4 1918.5,1155.4 		"/>
		<polygon class="st2" points="1944.5,1171.2 1911.8,1171.2 1914.6,1155.4 1944.5,1155.4 		"/>
		
			<rect x="1911.8" y="1171.2" transform="matrix(-1 -1.224647e-16 1.224647e-16 -1 3862.9521 2594.4629)" class="st2" width="39.3" height="252.1"/>
	</g>
</g>
<g>
	<rect x="972.9" y="1186.8" class="st2" width="37.9" height="234.1"/>
	<rect x="995.2" y="1163.6" class="st2" width="44.1" height="257.3"/>
	<rect x="1039.6" y="1184.4" class="st2" width="44.1" height="237.1"/>
	<rect x="1061.8" y="1227.4" class="st2" width="44.1" height="194.1"/>
	<rect x="1103.3" y="1266.1" class="st2" width="44.1" height="155.4"/>
	<rect x="1170.5" y="1321.8" class="st2" width="44.1" height="99.8"/>
	<rect x="1414.1" y="1079.7" class="st2" width="44.1" height="136.1"/>
	<rect x="930.7" y="1279.8" class="st2" width="64.5" height="141.1"/>
</g>
<polygon class="st1" points="2058.8,1243.3 2058.8,1401.3 1997.2,1401.3 1997.2,1203.7 2017.5,1203.7 2017.5,1196 2038.5,1196 
	2038.5,1203.7 2058.5,1203.7 2058.5,1243.3 "/>
<path class="st1" d="M1982.1,1152.6v-31.1h-3.8v-6h-4.4c0-0.1,0-0.2,0-0.2c0-9.5-7.3-17.3-16.6-18V1083h-2.9v14.3
	c-9.3,0.8-16.6,8.5-16.6,18c0,0.1,0,0.2,0,0.2h-4.4v6h-3.8v31.1h-5.7v225.3v3.6v40h16.6v0.5h15.6h15.4v-0.5h16.5v-40v-3.6v-225.3
	H1982.1z"/>
<path class="st1" d="M1738.2,1004v-5.4h0v-16.7c0,0-16.2-9.7-16.2-47.2h-11.8c0.8-0.9,1.4-2.1,1.4-3.5c0-2-1.1-3.7-2.7-4.6
	c0.4-0.6,0.7-1.2,0.7-2c0-1-0.5-1.9-1.2-2.5l0.8-1.2l-2.5-25.9c0-0.4-0.6-0.4-0.6,0l-2.5,25.9l0.9,1.2c-0.8,0.6-1.3,1.5-1.3,2.6
	c0,0.8,0.3,1.4,0.7,2c-1.6,0.9-2.7,2.6-2.7,4.6c0,1.3,0.5,2.6,1.4,3.5h-11.8c0,37.5-16.2,47.2-16.2,47.2v16.7h0v5.4h0v4.7h0v5.4h0
	v4.7h0v5.4h0v4.7h0v5.4h0v4.7h0v5.4h0v84.4v9.8v151.4v9.8v121.6v0.2h10v-0.2h43.6v0.2h10v-0.2V1300v-9.8v-151.4v-9.8v-84.4h0v-5.4h0
	v-4.7h0v-5.4h0v-4.7h0v-5.4h0v-4.7h0v-5.4h0L1738.2,1004L1738.2,1004z M1679.1,981.8C1679.1,981.8,1679.1,981.8,1679.1,981.8
	L1679.1,981.8C1679.1,981.8,1679.1,981.8,1679.1,981.8z"/>
<path class="st1" d="M1533.3,1258.9v-6.1v-0.1c0,0-0.3-3.5-3.9-5.8c-1.2-0.8-2.7-1.4-4.7-1.7c-0.6-0.1-1.3-0.2-2-0.2h-2.7h-4.7h-0.8
	v-158.9h0.1v-13.9h-0.1v-30.9c-0.1-0.8-0.8-3.7-3.9-5.7c-1.2-0.8-2.7-1.4-4.7-1.7c-0.5-0.1-1.1-0.2-1.7-0.2h-2.7h-0.3h-4.7v-0.7
	V852.6h0.3v-13.9h-0.3v-27.9c-0.1-0.6-0.8-4.2-4.7-6.3c-1.2-0.7-2.8-1.2-4.7-1.4V803h-2.8h-1.9V616.7c-0.3-1.2-1.3-4.1-4.7-5.8v-0.4
	h-3.7v-65h-2.5l-0.1-4.4l-0.1-5.1l-0.2-5.5l-1.2-42.8h-2.1l-1.3,42.8l-0.2,5.5l-0.2,5.1l-0.1,4.4h-2.5v87.3v0
	c-1.9,0.2-3.4,0.7-4.6,1.3c-0.2,0.1-0.4,0.2-0.6,0.4c-3.4,2.1-4,5.4-4.1,6v112.1c0,0,0,0,0,0c-1.9,0.2-3.5,0.7-4.7,1.4
	c-4,2.1-4.6,5.7-4.7,6.3v78.5h-0.6v13.9h0.6v130.6h-0.6h-4.2h-2h-2.7v0.1c-1.9,0.2-3.5,0.7-4.7,1.4c-4,2.1-4.6,5.7-4.7,6.3v202.9
	h-4.7h-4.7h-0.6c-1.6,0-2.9,0.2-4.1,0.4c-2.1,0.5-3.6,1.4-4.7,2.4c-2.5,2.3-2.8,5.1-2.8,5.1v219.5l31.1,0.2v1h61.5h4.7h31.9v-2.1
	v-161.4L1533.3,1258.9L1533.3,1258.9z"/>
<path class="st1" d="M942.7,1315.8c-4.5-41.6-15.8-76.6-28.1-103.9l5.3-7.9c7.2-0.1,12.9-1.8,12.9-3.7c0-2.1-6.3-3.7-14-3.7
	c-4.4,0-8.3,0.5-10.9,1.4c-4.1-8.2-8.2-15.4-12.1-21.8c-17.2-28.3-32.9-44.5-36.5-48.1l-0.2-5.8H851v-48.8l-5.2,7.6v41.1v7.4v69.9
	h-5.1v220.3h2.5h2.5h8.2h5h6.8h2.3h5h56.3h7.1c0.5-1.4,1-2.8,1.4-4.3C944.2,1394.7,947.8,1363.1,942.7,1315.8z M938.3,1359.8
	c0,0,0.1-0.1,0.1-0.1c0,2.1-0.1,4.1-0.1,6.2V1359.8z M890.3,1179.7c2.9,4.9,6,10.3,9.2,16.2h-38.1l-1.7-58
	C866.3,1145.3,878,1159.4,890.3,1179.7z"/>
<path class="st1" d="M1308.9,1421.6v0.1h81.6c0,0,0-0.4,0-1.1c0-1.3,0-3.8-0.1-7.3c0-2.1-0.1-4.5-0.1-7.3c0-2.2-0.1-4.7-0.1-7.3
	c0-2.3-0.1-4.7-0.1-7.3c0-2.3-0.1-4.8-0.1-7.3c0-2.3-0.1-4.8-0.1-7.3c0-2.4-0.1-4.8-0.1-7.3c0-2.4-0.1-4.8-0.1-7.3
	c0-2.4-0.1-4.8-0.1-7.3c0-2.4-0.1-4.8-0.1-7.3c0-2.4-0.1-4.8-0.1-7.3c0-2.4-0.1-4.8-0.1-7.3c0-2.4-0.1-4.8-0.1-7.3
	c0-2.4-0.1-4.8-0.1-7.3c0-2.4-0.1-4.8-0.1-7.3c0-2.4-0.1-4.9-0.1-7.3c0-2.4-0.1-4.8-0.1-7.3c0-2.4-0.1-4.8-0.1-7.3
	c0-2.4-0.1-4.8-0.1-7.3c-0.1-2.4-0.1-4.8-0.2-7.3c0-2.4-0.1-4.9-0.2-7.3c0-2.4-0.1-4.9-0.2-7.3c0-2.4-0.1-4.9-0.2-7.3
	c-0.1-2.4-0.1-4.8-0.2-7.3c-0.1-2.4-0.1-4.9-0.2-7.3c-0.1-2.4-0.1-4.9-0.2-7.3c-0.1-2.4-0.1-4.9-0.2-7.3c-0.1-2.4-0.1-4.9-0.2-7.3
	c-0.1-2.4-0.1-4.9-0.2-7.3c-0.1-2.4-0.1-4.9-0.2-7.3c0-2.4-0.1-4.9-0.2-7.3c0-0.3,0-0.6,0-0.9c-0.1-2.1-0.1-4.3-0.2-6.4v-0.1
	c-0.1-2.4-0.1-4.8-0.2-7.2l-0.2-7.3c-0.1-2.4-0.1-4.9-0.2-7.3c-0.1-2.4-0.2-4.9-0.2-7.3c0-1.8-0.1-3.6-0.2-5.4c0-0.6,0-1.3-0.1-1.9
	c-0.1-2.4-0.2-4.9-0.2-7.3c-0.1-2.4-0.2-4.9-0.2-7.3c-0.1-2.4-0.2-4.9-0.2-7.3c-0.1-2.4-0.2-4.9-0.3-7.3c-0.1-2.4-0.2-4.9-0.3-7.3
	c-0.1-2.4-0.2-4.9-0.3-7.3c-0.1-2.5-0.2-4.9-0.3-7.3c-0.1-2.4-0.2-4.9-0.3-7.3c-0.1-2.4-0.2-4.9-0.3-7.3c-0.1-2.5-0.2-4.9-0.3-7.3
	c-0.1-2.5-0.2-4.9-0.3-7.3c-0.1-2.4-0.2-4.9-0.3-7.3c-0.1-2.4-0.2-4.9-0.3-7.3c-0.1-2.4-0.2-4.9-0.3-7.3c-0.1-2.5-0.2-4.9-0.3-7.3
	c-0.1-2.5-0.2-4.9-0.4-7.3c-0.1-2.5-0.2-4.9-0.4-7.3c-0.1-2.5-0.3-4.9-0.4-7.3c-0.1-2.5-0.3-4.9-0.4-7.3c-0.1-2.5-0.3-4.9-0.4-7.3
	c-0.1-2.5-0.3-4.9-0.4-7.3c-0.2-2.5-0.3-4.9-0.5-7.3c-0.2-2.5-0.3-4.9-0.5-7.3c-0.2-2.5-0.4-4.9-0.5-7.3c-0.2-2.5-0.4-4.9-0.6-7.3
	c-0.2-2.5-0.4-4.9-0.6-7.3c-0.2-2.5-0.4-4.9-0.7-7.3c-0.2-2.5-0.5-5-0.7-7.3c-0.3-2.5-0.5-5-0.8-7.3c-0.3-2.6-0.6-5-0.9-7.3
	c-0.2-1.4-0.4-2.8-0.6-4.1v-25.3v-3.7V862l-5.2,2.9V900l-4.1,1.9v24.9c-0.1,0-0.2,0-0.3,0c-0.3,0-0.7,0.1-1,0.1
	c-0.3,0-0.5,0-0.8,0.1c-0.3,0-0.5,0-0.8,0.1c-0.4,0-0.9,0.1-1.3,0.1c-0.3,0-0.6,0.1-0.9,0.1c-0.3,0-0.6,0.1-0.8,0.1
	c-0.5,0.1-0.9,0.1-1.4,0.2c-0.3,0-0.6,0.1-0.9,0.1c-0.3,0-0.7,0.1-1,0.1c-0.3,0.1-0.7,0.1-1,0.2c-0.5,0.1-1,0.2-1.5,0.2
	c-0.3,0.1-0.6,0.1-0.9,0.2c-0.4,0.1-0.9,0.2-1.3,0.3c-0.4,0.1-0.9,0.2-1.3,0.3c-0.4,0.1-0.7,0.2-1.1,0.2c-0.3,0.1-0.7,0.1-1,0.2
	c-0.6,0.1-1.1,0.3-1.7,0.4c-0.4,0.1-0.7,0.2-1.1,0.3c-0.4,0.1-0.7,0.2-1.1,0.3c-0.6,0.2-1.2,0.3-1.7,0.5c0,0,0,0,0,0
	c-0.5,0.1-1,0.3-1.4,0.4c-0.4,0.1-0.7,0.2-1.1,0.3c-0.4,0.1-0.7,0.2-1.1,0.4c-0.5,0.2-1,0.3-1.5,0.5c-0.3,0.1-0.6,0.2-0.9,0.3
	c-0.6,0.2-1.1,0.4-1.7,0.6c-0.3,0.1-0.5,0.2-0.8,0.3c-0.6,0.2-1.3,0.5-1.9,0.8c-0.2,0.1-0.4,0.2-0.6,0.3c-1.7,0.7-3.4,1.5-5.1,2.4
	c-0.1,0.1-0.2,0.1-0.3,0.2c-0.6,0.3-1.2,0.6-1.8,0.9c-0.1,0.1-0.2,0.1-0.3,0.2c-0.4,0.2-0.8,0.5-1.3,0.7c-0.5,0.3-0.9,0.5-1.4,0.8
	c-0.5,0.3-1,0.6-1.4,0.9c-0.4,0.2-0.8,0.5-1.1,0.7c-0.9,0.6-1.7,1.2-2.5,1.8c-0.2,0.2-0.5,0.4-0.7,0.6c-0.6,0.5-1.2,0.9-1.7,1.4
	c-0.1,0-0.1,0.1-0.2,0.1c-0.7,0.6-1.4,1.2-2,1.8v1.9v3.7v5.4v1.9v7.3v7.3v7.3v7.3v7.3v7.3v7.3v5.8l-18.6-7.6
	c-0.1,0.2-0.2,0.4-0.4,0.7c-0.1,0.1-0.1,0.3-0.2,0.4c-0.1,0.1-0.1,0.3-0.2,0.4c-0.1,0.2-0.1,0.4-0.2,0.6c0,0.1-0.1,0.2-0.1,0.4
	c-0.1,0.2-0.1,0.5-0.2,0.7c0,0.1-0.1,0.2-0.1,0.4c-0.1,0.3-0.2,0.5-0.2,0.8c0,0.1-0.1,0.3-0.1,0.4c-0.1,0.3-0.1,0.6-0.2,0.9
	c0,0.2-0.1,0.4-0.1,0.6c-0.1,0.3-0.1,0.5-0.2,0.8c-0.1,0.4-0.2,0.9-0.3,1.4c0,0,0,0,0,0.1c-0.6,3.3-1.2,7.5-1.8,12.3
	c0,0.4-0.1,0.8-0.1,1.3c0,0.2,0,0.3-0.1,0.5c-0.1,0.8-0.2,1.5-0.3,2.3c0,0.2,0,0.4-0.1,0.6c-0.1,0.8-0.2,1.7-0.3,2.6
	c0,0.3-0.1,0.6-0.1,0.9c-0.1,0.9-0.2,1.7-0.2,2.6c0,0.2,0,0.4-0.1,0.6c0,0.1,0,0.1,0,0.2c-0.4,4.1-0.7,8.5-1,13.2
	c0,0.4-0.1,0.8-0.1,1.2c0,0.2,0,0.3,0,0.5c-0.4,5.4-0.7,11.1-1.1,17.2c0,0.9-0.1,1.7-0.1,2.6c0,0.3,0,0.5,0,0.8c0,0.3,0,0.6,0,0.9
	c0,0.3,0,0.6,0,0.9c0,0.8-0.1,1.5-0.1,2.3c0,0.2,0,0.5,0,0.7c-4.5,89.3-5.4,236.1-5.5,303.1h0v14.3c0,4.9,0,9,0,12.3c0,0,0,0,0,0.1
	c0,0.3,0,0.6,0,0.9c0,0.1,0,0.3,0,0.4c0,3.5,0,5.8,0,6.8c0,0.1,0,0.2,0,0.2c0,0,0,0.1,0,0.1c0,0.1,0,0.1,0,0.2c0,0.1,0,0.1,0,0.1
	l7.7,1.2c0-0.4,0-0.7,0-1.2l7.4,0h22h5.5h31.5v0h12.7h20.4c0,0.7,0,1,0,1H1308.9z"/>
<path class="st1" d="M1640.2,1034v-81.8v-7.7v-0.2v-2.2v-2.4h-9.8v-13.5v-4.8h-3.9v-12.2h-0.3c0,0-2.9-15.5-18-18.9
	c-0.6-0.3-4.3-2.3-4.3-9.1c0-7.3,0-22.8,0-22.8h-0.7h-1.3h-0.7c0,0,0,15.4,0,22.8c0,6.7-3.7,8.8-4.3,9.1c-15.1,3.4-18,18.9-18,18.9
	h-0.2v12.2h-3.9v4.8v13.5h-10.6v3v1.6v0.2v7.7v81.8h-3.9v7.8v379.6h14.4h1.4h52.1h6.2h9.6v-379.6v-7.8H1640.2z"/>
<path class="st1" d="M1908.2,1202.6c0-1.2,0-2.4,0-3.6c0-2.3,0-4.6,0-6.9c0-1.2,0-2.4,0-3.6c0-2.3,0-4.6-0.1-6.9c0-1.2,0-2.4,0-3.6
	c0-2.3-0.1-4.6-0.1-6.9c0-1.2,0-2.4,0-3.6c0-2.3-0.1-4.6-0.1-6.9c0-1.2,0-2.4-0.1-3.6c0-2.3-0.1-4.6-0.1-6.9c0-1.2,0-2.4-0.1-3.7
	l0,0c0-1.2,0-2.3-0.1-3.4c0-1.1,0-2.3-0.1-3.4c0-1.2-0.1-2.5-0.1-3.7c-0.1-2.3-0.1-4.6-0.2-6.8c0-1.2-0.1-2.5-0.1-3.7h0
	c-0.1-2.3-0.1-4.6-0.2-6.8l0,0v0c0-1.2-0.1-2.5-0.1-3.7v0l0,0c-0.1-2.3-0.1-4.6-0.2-6.8l0,0c0-1.3-0.1-2.5-0.1-3.7
	c-0.1-2.3-0.1-4.6-0.2-6.8c0-1.3-0.1-2.5-0.1-3.7c-0.1-2.3-0.2-4.6-0.2-6.7c0-1-0.1-1.9-0.1-2.9v0l0,0c0-0.1,0-0.2,0-0.3
	c0-0.2,0-0.3,0-0.5c-0.1-2.1-0.2-4.1-0.2-6l-0.1-36.8c0-0.9-0.2-1.8-0.8-2.5c-0.6-0.7-1.4-1.2-2.3-1.3c-14.7-2.1-40.7-0.6-47.1-0.2
	c-0.9,0.1-1.8,0.5-2.4,1.2c-0.6,0.7-1,1.6-1,2.5l0,15.9c-0.1,0-0.1,0-0.1,0l0.1,2.1l0,0.4c0-0.1,0-0.3,0-0.4
	c-0.5,4.1-1.1,9.8-1.8,17c0,0.4-0.1,0.8-0.1,1.2c-0.2,1.9-0.4,3.8-0.6,5.9c0,0.3-0.1,0.7-0.1,1c-0.1,0.8-0.1,1.5-0.2,2.3
	c0,0.3-0.1,0.6-0.1,1c-0.2,2-0.4,4-0.6,6.2c0,0.2,0,0.5-0.1,0.7c-0.1,0.9-0.1,1.7-0.2,2.6c0,0.2,0,0.4-0.1,0.6
	c-0.2,2.1-0.4,4.3-0.5,6.5c0,0.1,0,0.2,0,0.4c-0.1,1-0.2,2-0.2,3c0,0.1,0,0.2,0,0.2c-0.2,2.2-0.4,4.5-0.5,6.9c0,0,0,0,0,0.1
	c-0.1,1-0.2,2.1-0.2,3.1c0,0.1,0,0.1,0,0.2c-0.2,2.2-0.3,4.4-0.5,6.7c0,0.2,0,0.4,0,0.5c-0.1,0.9-0.1,1.7-0.2,2.6c0,0.2,0,0.5,0,0.7
	c-0.1,2-0.3,4.1-0.4,6.1c0,0.4,0,0.7-0.1,1.1c0,0.7-0.1,1.4-0.1,2.1c0,0.4-0.1,0.8-0.1,1.2c-0.1,1.8-0.2,3.7-0.3,5.6
	c0,0.6-0.1,1.1-0.1,1.7c0,0.5-0.1,1-0.1,1.5c0,0.6-0.1,1.2-0.1,1.8c-0.1,1.6-0.2,3.3-0.3,5c0,0.8-0.1,1.5-0.1,2.3v0
	c0,0.3,0,0.6,0,0.9c0,0.8-0.1,1.6-0.1,2.4c-0.1,1.4-0.2,2.9-0.2,4.4c0,1-0.1,1.9-0.1,2.9c0,0.1,0,0.2,0,0.2c0,1-0.1,2-0.1,3.1
	c-0.1,1.2-0.1,2.5-0.2,3.7c0,1-0.1,2.1-0.1,3.1c0,0.1,0,0.3,0,0.4v0c0,1.1-0.1,2.2-0.1,3.3c0,1-0.1,2-0.1,3c0,1-0.1,2.1-0.1,3.1
	c0,0.4,0,0.8,0,1.1c0,1.1-0.1,2.2-0.1,3.3c0,0.2,0,0.5,0,0.7c0,0.5,0,1.1-0.1,1.6c0,1-0.1,2.1-0.1,3.1c0,0.6,0,1.2,0,1.8
	c0,1.1,0,2.1-0.1,3.2c0,0.5,0,1.1,0,1.6c0,1,0,2.1,0,3.1c0,0.8,0,1.7,0,2.5c0,1.1,0,2.1,0,3.2v1c0,1,0,2.1,0,3.1c0,1,0,2.1,0,3.1
	c0,1.1,0,2.1,0,3.2c0,0.1,0,0.2,0,0.4c0,1,0,2.1,0,3.1c0,1.2,0,2.5,0.1,3.8c0,1,0,1.9,0,2.9c0,0.1,0,0.1,0,0.2c0,1,0,1.9,0.1,2.9
	c0,1.4,0.1,2.8,0.1,4.2c0,0.8,0,1.6,0.1,2.4c0,0.2,0,0.5,0,0.7c0,0.8,0,1.6,0.1,2.4c0,1.5,0.1,3.1,0.1,4.6c0,0.7,0,1.4,0.1,2
	c0,0.4,0,0.8,0,1.2c0,1.1,0.1,2.2,0.1,3.3c0,1.2,0.1,2.4,0.1,3.6c0,1,0.1,2,0.1,3c0,0.1,0,0.2,0,0.3c0,1.2,0.1,2.4,0.1,3.6
	c0,1.1,0.1,2.2,0.1,3.3c0,1.1,0.1,2.2,0.1,3.3v0.1c0,1,0.1,2.1,0.1,3.1c0,1.2,0.1,2.4,0.2,3.7c0,1,0.1,2,0.1,3c0,0.1,0,0.3,0,0.4
	l0.2,3.5l0,0.8v6h0.3c0.1,1.3,0.1,2.6,0.2,4c0,0.8,0.1,1.7,0.1,2.5c0,1.1,0.1,2.3,0.2,3.4c0,0.2,0,0.5,0,0.7c0,1.1,0.1,2.2,0.2,3.3
	l0.1,2.6c0.1,1.1,0.1,2.3,0.2,3.4c0,0.2,0,0.4,0,0.6c0.1,1.2,0.1,2.5,0.2,3.7c0,0.8,0.1,1.5,0.1,2.3c0.1,1.2,0.1,2.3,0.2,3.5
	c0,0.3,0,0.6,0,0.9c0,1,0.1,2,0.1,3c0,0.9,0.1,1.8,0.1,2.7c0.1,1.2,0.1,2.3,0.2,3.5c0,0.1,0,0.3,0,0.4c0.1,1.3,0.1,2.6,0.2,3.8
	c0,0.8,0.1,1.6,0.1,2.3c0.1,1.2,0.1,2.3,0.2,3.5c0,0.3,0,0.6,0,0.8c0.1,1.1,0.1,2.3,0.2,3.4c0,0.8,0.1,1.6,0.1,2.4
	c0.1,1.2,0.1,2.3,0.2,3.5c0,0.3,0,0.5,0,0.8c0.1,1.1,0.1,2.3,0.2,3.4c0,0.8,0.1,1.6,0.1,2.4c0.1,1.2,0.1,2.3,0.2,3.5
	c0,0.2,0,0.4,0,0.5c0,0.1,0,0.1,0,0.2c0.1,1.1,0.1,2.3,0.2,3.4c0.1,0.8,0.1,1.7,0.2,2.5c0.1,1.2,0.1,2.4,0.2,3.5c0,0.2,0,0.4,0,0.6
	c0.1,1.2,0.2,2.4,0.2,3.6c0,0.8,0.1,1.6,0.1,2.4c0.1,1.2,0.2,2.4,0.2,3.5c0,0.3,0,0.5,0,0.8c0.1,1.4,0.2,2.8,0.3,4.1
	c0,0.6,0.1,1.1,0.1,1.7c0.1,1.2,0.2,2.4,0.2,3.5c0,0.5,0.1,1,0.1,1.5c0.1,1,0.1,2,0.2,2.9c0,0.8,0.1,1.5,0.1,2.2
	c0.1,1.2,0.2,2.4,0.2,3.5c0,0.3,0,0.6,0.1,0.9c0.1,1,0.1,2,0.2,3c0.1,0.9,0.1,1.8,0.2,2.7c0.1,1.3,0.2,2.5,0.2,3.5
	c0,0.2,0,0.3,0,0.5c0.3,3.7,0.4,5.8,0.4,5.8h41.4c0,0-0.1-0.5-0.2-1.3h7.1v-4.8v-3.5v-6.7v-1.9v-6.4l0,0l0-0.2h0l0.2-2.9l0.3-6.6
	l0.2-2.9l0.3-6.6l0.2-2.9l0.1-1.7l0,0c0.2-1.6,0.4-3.3,0.5-4.9c0.1-0.9,0.2-1.9,0.3-2.8c0-0.4,0.1-0.7,0.1-1.1c0.1-1,0.1-2,0.2-3
	c0-0.9,0.1-1.7,0.2-2.6c0.1-0.9,0.1-1.9,0.2-2.8v0l0,0c0-0.4,0-0.8,0.1-1.2c0.1-1.2,0.1-2.3,0.2-3.5c0-0.5,0.1-1,0.1-1.4
	c0-0.2,0-0.4,0-0.6c0-0.9,0.1-1.8,0.2-2.8c0-0.6,0.1-1.2,0.1-1.8c0.1-1.2,0.1-2.3,0.2-3.5c0-0.5,0-0.9,0.1-1.4
	c0-0.9,0.1-1.8,0.2-2.8l0,0c0,0,0-0.1,0-0.1c0-0.8,0.1-1.6,0.1-2.4c0.1-1.2,0.1-2.3,0.2-3.5c0-0.3,0-0.5,0-0.8
	c0-0.9,0.1-1.8,0.1-2.7h0c0-0.5,0-0.9,0.1-1.4c0-0.6,0.1-1.2,0.1-1.7c0-0.3,0-0.7,0.1-1c0-0.6,0.1-1.2,0.1-1.7c0-0.2,0-0.3,0-0.5
	c0-0.1,0-0.1,0-0.2c0,0,0-0.1,0-0.1c0-0.9,0.1-1.8,0.1-2.7c0.1-1.3,0.1-2.6,0.2-3.8c0-1,0.1-1.9,0.1-2.9c0,0,0,0,0,0l0,0l0,0
	c0-0.2,0-0.3,0-0.5c0-0.7,0.1-1.4,0.1-2.2l0,0c0,0,0-0.1,0-0.1c0.1-1.5,0.1-2.9,0.2-4.4c0-0.8,0.1-1.5,0.1-2.3c0-0.4,0-0.8,0.1-1.1
	c0-0.5,0-1,0.1-1.5c0.1-1.5,0.1-2.9,0.2-4.4c0-0.3,0-0.6,0-0.9c0-0.5,0-1.1,0.1-1.6h0v0c0-0.6,0.1-1.2,0.1-1.8l0-0.8v0l0.1-2.5
	l0.1-3.4c0-0.3,0-0.6,0-0.9l0,0v0c0-0.8,0.1-1.6,0.1-2.4c0,0,0-0.1,0-0.1v0h0c0.1-2.2,0.2-4.4,0.3-6.5c0-0.1,0-0.1,0-0.2
	c0,0,0,0,0,0c0-0.1,0-0.2,0-0.2l0,0v0c0-0.8,0.1-1.7,0.1-2.5c0-0.2,0-0.4,0-0.6c0.1-2.1,0.2-4.3,0.2-6.4c0-0.2,0-0.3,0-0.5
	c0-0.7,0-1.3,0.1-2v0l0,0c0-0.4,0-0.8,0-1.3c0,0,0,0,0,0c0,0,0-0.1,0-0.1c0.1-1.9,0.1-3.8,0.2-5.6l0,0c0-0.4,0-0.8,0-1.2
	c0-0.7,0-1.5,0.1-2.2c0-0.1,0-0.2,0-0.4c0-0.2,0-0.4,0-0.7c0-0.9,0.1-1.9,0.1-2.8c0-1.1,0.1-2.1,0.1-3.2v0c0-0.3,0-0.7,0-1
	c0-0.8,0-1.6,0.1-2.4c0-0.3,0-0.5,0-0.8c0-2.1,0.1-4.2,0.1-6.2v0c0-0.3,0-0.6,0-0.9c0-0.9,0-1.7,0-2.6c0-0.2,0-0.4,0-0.6
	c0-2.2,0.1-4.3,0.1-6.4c0-0.3,0-0.5,0-0.8c0-0.9,0-1.8,0-2.7c0-0.2,0-0.3,0-0.5c0-2.2,0-4.4,0-6.5c0,0,0,0,0.1,0v-3.5
	C1908.2,1207.2,1908.2,1204.9,1908.2,1202.6z M1859.4,1040.7c8.7-0.4,26.3-1.1,38.6,0c1.9,0.2,3.3,1.8,3.2,3.7l-0.1,8.7h-45l0-8.9
	C1856.1,1042.3,1857.5,1040.8,1859.4,1040.7z M1852,1058.8l0.4,7C1852.2,1063.2,1852.1,1060.8,1852,1058.8L1852,1058.8z"/>
<path class="st1" d="M1825.8,1248.2v-25.6v-25.6v-25.6v-71.5v-3.4V1069v-3.4v-26.8h0.1v-3.4h-0.1l-9.8-26.6l-0.6-1.7l-0.6-1.7
	l-16-43.4l6,43.4h0l-6-43.4h-2.9v-15h-1.4v-21.8h-3v21.8h-1.4v15h-2.9l-6,43.4h0l6-43.4l-16,43.4l-0.6,1.7l-0.6,1.7l-9.8,26.6h0v3.4
	h0v88.8h-0.1v3.4h0.1v29.5h0v11.1h0v25.6v25.6v25.6v25.6v25.6h-0.1v10.5v0.5v109.5h0.1v1.7h65.8v-3.4h0v-24.3h0v-3.4h0V1366h0v-3.4
	h0v-24.3h0v-3.4h0v-24.4h0v-11.1h0v-25.6V1248.2z M1805,1362.6L1805,1362.6l0-24.3h0V1362.6z M1805,1334.8v-24.4h0L1805,1334.8
	L1805,1334.8z M1805,1366L1805,1366l0,24.3h0V1366z M1805,1393.8L1805,1393.8l0,24.3h0V1393.8z"/>
<path class="st1" d="M922.2,1419.6c-5.9-1-12-2.3-18.4-4.1c-4.9-1.4-10-3-15.3-4.8c-4.2-1.5-8.4-3.2-12.8-5
	c-3.5-1.5-7.2-3.1-10.8-4.8c-3.3-1.6-6.7-3.2-10.1-5c-3-1.5-6-3.1-9.1-4.8c-2.9-1.6-5.8-3.3-8.7-5c-2.6-1.6-5.3-3.2-8-4.8
	c-1.5-0.9-3-1.9-4.5-2.8c-1.1-0.7-2.2-1.4-3.3-2.2c-2.4-1.6-4.7-3.2-6.8-4.8c-2.2-1.7-4.3-3.3-6.3-5c-1.9-1.6-3.8-3.2-5.6-4.8
	c-1.8-1.7-3.5-3.3-5.2-5c-1.6-1.6-3.1-3.2-4.6-4.8c-1.5-1.7-2.9-3.4-4.3-5c-1.3-1.6-2.6-3.3-3.8-4.8c-1.3-1.7-2.4-3.4-3.5-5
	c-10.3-15.5-12.9-27.1-12.9-27.1h-1.4v0c0,0-3.5,3.8-10.4,8.9h-13.7v8.4c-4.2,2.2-9,4.4-14.4,6.4c-1.8,0.7-3.2,1.3-4.2,1.9
	c-0.3,0.1-0.6,0.2-0.9,0.3c-1.3,0.4-2.6,0.9-3.8,1.4c-0.7,0.3-1.4,0.6-2.1,0.8c-3.2,1.3-6.4,2.7-9.5,4.2c-3.1,1.5-6.2,3.1-9.2,4.8
	c-1.4,0.8-2.8,1.6-4.2,2.4c-1.4,0.8-2.7,1.7-4.1,2.6c-1.7,1.1-3.4,2.2-5.1,3.4c-0.7,0.5-1.4,1-2.1,1.4c-0.5,0.3-0.9,0.7-1.4,1
	c-1.8,1.3-3.6,2.6-5.3,4c-1.5,1.2-2.9,2.3-4.4,3.5c-0.5,0.4-1.1,0.9-1.6,1.3c-2,1.7-3.9,3.3-5.8,5c-0.9,0.8-1.8,1.6-2.7,2.4
	c-0.9,0.8-1.7,1.6-2.6,2.4c-0.4,0.4-0.9,0.8-1.3,1.3c-0.9,0.8-1.7,1.7-2.5,2.5c-0.4,0.4-0.8,0.8-1.3,1.3c-0.4,0.4-0.8,0.8-1.2,1.2
	c-1.2,1.2-2.4,2.4-3.5,3.7c-1.6,1.7-3.1,3.4-4.6,5c-1.5,1.6-2.9,3.3-4.2,4.8c-1.5,1.7-2.8,3.4-4.1,5c-0.7,0.8-1.3,1.7-2,2.5
	c-0.6,0.8-1.3,1.6-1.8,2.4c-0.7,0.9-1.3,1.7-2,2.6c-0.6,0.8-1.2,1.6-1.8,2.4c-1,1.3-1.9,2.6-2.7,3.7c-0.3,0.4-0.5,0.8-0.8,1.1
	c-0.4,0.5-0.7,1-1,1.5c-1,1.4-1.7,2.6-2.3,3.5c-0.5,0.8-0.9,1.4-1.1,1.7c-0.1,0.2-0.2,0.3-0.2,0.3l6-0.3l0,0l33.3-1.5
	c-0.3,0.2-0.6,0.5-0.8,0.7h101.2h4.7h1c0,0,0.2,0,0.5,0c6.4,0,75,0,83.6,0h0h10h53.1h23.9h1.4C933.5,1421.2,928,1420.6,922.2,1419.6
	z"/>
<path class="st1" d="M2336.6,1400.1v-60.6h-4.7v0h-4.9l-2.4-7.2h1.5v-0.9h0l-4.1-1l-1.4-8.4l-1.4,8.4l-4.1,1h0v0.9h1.5l-2.4,7.2
	h-10.3v-14h-27v-23.9h1.7v-2.8h-2.7l-3.2-9.6h2v-1.2h0l-5.5-1.3l-1.8-11.2l-1.8,11.2l-5.5,1.3h0v1.2h2l-3.2,9.6h-2.7v2.8h1.7v6h-62
	v-25.3h1.9v-3.5h-1.9l-3.6-12.2h2.2v-1.6h0l-6-1.6l-2.2-15.1l-2.2,15.1l-6,1.6h0v1.6h2.2l-3.6,12.2h-1.9v3.5h1.9v7.3h-16v-3.7
	l-11.1-5.4v-2.9h0l-3.7-5l-3.7,5v2.9l-11.1,5.4v3.7h-16v-7.3h1.9v-3.5h-1.9l-3.6-12.2h2.2v-1.6h0l-6-1.6l-2.2-15.1l-2.2,15.1l-6,1.6
	h0v1.6h2.2l-3.6,12.2h-1.9v3.5h1.9v25.3h-62v-6h1.7v-2.8h-2.7l-3.2-9.6h2v-1.2h0l-5.5-1.3l-1.8-11.2l-1.8,11.2l-5.5,1.3h0v1.2h2
	l-3.2,9.6h-2.7v2.8h1.7v23.9h-27v14h-10.3l-2.4-7.2h1.5v-0.9h0l-4.1-1l-1.4-8.4l-1.4,8.4l-4.1,1h0v0.9h1.5l-2.4,7.2h-4.9h-4.7v60.6
	h-4.1v19.9h21.4h6.1h9h6.1h9h6.1h39.9h8.6h3.2h8.6h3.2h8.6h3.2h8.6H2199h8.6h3.2h8.6h3.2h8.6h3.2h8.6h39.9h6.1h9h6.1h9h6.1h21.5
	v-19.9H2336.6z M2122,1411.1c0-0.5,0-27.6,0-34.3c0-9.2,4.9-8.8,4.9-8.8v-6c0,0-6.7-4.2-6.7-14.2s7.3-18.6,16.2-24.2
	c6.7-4.2,8.8-5.1,9.4-5.3c0.6,0.2,2.7,1.1,9.4,5.3c8.8,5.5,16.2,14.3,16.2,24.2s-6.7,14.2-6.7,14.2v6c0,0,4.9-0.4,4.9,8.8
	c0,6.7,0,33.8,0,34.3H2122z"/>
<rect x="531.3" y="1428.4" class="st1" width="1900.4" height="3.8"/>
<g>
	<polygon class="st1" points="1126.5,1018.8 1126.5,997 1123.5,995.8 1123.5,962.7 1118.9,962.7 1118.9,994.1 1118.9,1004.7 
		1118.9,1051 1118.9,1064.5 1118.9,1086.2 1120.3,1086.2 1126.5,1086.2 1129.8,1086.2 1129.8,1125.7 1121.9,1125.7 1121.9,1131.9 
		1121.9,1134.8 1121.9,1355.1 1121.9,1359.7 1121.9,1364.2 1129.8,1364.2 1129.8,1421.1 1145.7,1421.1 1179,1421.1 1183.2,1421.1 
		1193.1,1421.1 1193.1,1364.2 1193.1,1355.1 1193.1,1134.8 1193.1,1125.7 1193.1,1086.2 1193.1,1076.6 	"/>
	<polygon class="st1" points="1101.7,1036.9 1098.7,1038 1098.7,1059.9 1032.8,1117.1 1032.1,1117.1 1032.1,1117.7 1032.1,1127.2 
		1032.1,1166.7 1032.1,1175.8 1032.1,1354.2 1032.1,1363.3 1032.1,1422.5 1046.2,1422.5 1046.2,1422.4 1079.5,1422.4 1079.5,1422.5 
		1095.4,1422.5 1095.4,1363.3 1103.3,1363.3 1103.3,1354.2 1103.3,1175.8 1103.3,1172.9 1103.3,1166.7 1095.4,1166.7 1095.4,1127.2 
		1098.7,1127.2 1104.9,1127.2 1106.3,1127.2 1106.3,1103.4 1106.3,1089.9 1106.3,1045.7 1106.3,1035.1 1106.3,1003.7 1101.7,1003.7 
			"/>
</g>
<path class="st1" d="M1256.2,989.5c-5.7-8.1-20-21.4-21.6-22.9v-0.1c0,0,0,0-0.1,0.1c0,0-0.1-0.1-0.1-0.1v0.1
	c-1.6,1.5-15.9,14.8-21.6,22.9c-6,8.6-5.6,23.8-5.6,23.8v22.5h-0.1v2h0v3.3l0,0.1l0,0v5h0v375.3h22v0h10v-0.4l0,0v0.4h22v-375.3h0.3
	v-2.6l0,0l0-0.4v-4.3l0,0v-25.6C1261.8,1013.3,1262.2,998.1,1256.2,989.5z"/>
<rect x="1632.3" y="1240.8" class="st1" width="33.3" height="180.6"/>
<rect x="1918.5" y="1347.2" class="st1" width="51.7" height="73.4"/>
<rect x="1255.3" y="1311" class="st1" width="12.7" height="110.1"/>
<rect x="1265.2" y="1372.9" class="st1" width="18.4" height="48.5"/>
<rect x="1380.3" y="1320.8" class="st1" width="18.4" height="99.1"/>
<rect x="1394.9" y="1294.7" class="st1" width="18.4" height="128"/>
<rect x="1512" y="1368.1" class="st1" width="53.5" height="52.2"/>
<rect x="1186.4" y="1368" class="st1" width="12.1" height="52.1"/>
<rect x="1157.9" y="1401.3" class="st1" width="42.2" height="28.6"/>
<rect x="968.7" y="1279.8" class="st1" width="68" height="143.5"/>
<g>
	<rect x="1651.5" y="1332.6" class="st1" width="140.3" height="89.2"/>
	<rect x="1751.4" y="1270.1" class="st1" width="52.2" height="89.2"/>
	<rect x="1809.6" y="1388.3" class="st1" width="52.2" height="32.5"/>
	<rect x="1783.5" y="1368.7" class="st1" width="52.2" height="32.5"/>
	<rect x="1856" y="1398.7" class="st1" width="52.2" height="22.1"/>
	<rect x="1905.4" y="1404.5" class="st1" width="52.2" height="17.1"/>
	<rect x="1979.4" y="1356.5" class="st1" width="33.4" height="64.3"/>
	<rect x="1082.9" y="1411.9" class="st1" width="50.7" height="9.6"/>
	<rect x="950.8" y="1403.8" class="st1" width="143.1" height="18.7"/>
	<rect x="917.1" y="1413.9" class="st1" width="163.9" height="7.7"/>
	<rect x="978.9" y="1272.1" class="st1" width="68" height="143.5"/>
</g>
<g>
	<rect y="1419.2" class="st1" width="2962.3" height="100.8"/>
</g>
</svg>
