<?xml version="1.0" encoding="UTF-8"?>
<svg version="1.1" xmlns="http://www.w3.org/2000/svg" width="512" height="512">
<path d="M0 0 C4.93854097 4.64689485 8.53011246 9.08276133 9.35791016 15.98373413 C9.55189763 27.83942637 7.02058003 38.84419158 4.375 50.3515625 C3.87924823 52.56266122 3.38497475 54.77409183 2.89205933 56.98582458 C1.8336327 61.72126578 0.7654534 66.45435668 -0.31060791 71.18582153 C-2.03009638 78.74721144 -3.72755783 86.31344179 -5.42138672 93.88061523 C-6.00268564 96.4760795 -6.58404232 99.07153068 -7.16555786 101.66694641 C-7.31039576 102.31342673 -7.45523367 102.95990706 -7.6044606 103.62597769 C-8.64081363 108.2501614 -9.68036674 112.8736189 -10.72140503 117.49674988 C-16.11121457 141.4356073 -21.39488182 165.39730069 -26.65444946 189.36508179 C-28.12298057 196.0556577 -29.59547524 202.745357 -31.0690918 209.43481445 C-31.43398728 211.09130147 -31.43398728 211.09130147 -31.80625439 212.78125286 C-32.29813212 215.01410174 -32.79002176 217.246948 -33.28192329 219.47979164 C-36.87982942 235.81230137 -40.47213525 252.14602553 -44.05575943 268.48167515 C-46.19945121 278.25231699 -48.34732793 288.02203334 -50.49808884 297.79112148 C-51.77475391 303.59086885 -53.04931544 309.39105999 -54.31866455 315.19241333 C-55.4947177 320.56732607 -56.67621489 325.94101259 -57.8619175 331.31380463 C-58.29453972 333.27883722 -58.72513738 335.24431683 -59.15353966 337.21027374 C-59.73988415 339.89963805 -60.33352681 342.58729272 -60.92895508 345.2746582 C-61.09559221 346.04740617 -61.26222935 346.82015413 -61.43391609 347.6163187 C-63.48352681 356.7791592 -65.84941895 363.66907942 -74 369 C-78.937916 371.40463645 -83.91422982 371.40915384 -89.1953125 370.125 C-95.48562138 367.60186775 -100.70401046 363.14389327 -106 359 C-107.41005676 357.90612174 -108.8202163 356.81237596 -110.23046875 355.71875 C-112.48194413 353.96882117 -114.7309122 352.21594867 -116.97460938 350.45605469 C-122.4097439 346.19998262 -127.92590636 342.07194877 -133.5 338 C-140.5129456 332.87496253 -147.39705471 327.61141767 -154.23046875 322.25 C-160.34777801 317.46718229 -166.58362072 312.86179754 -172.8527832 308.28076172 C-181.37441256 302.03292188 -189.69467495 295.53121459 -198 289 C-203.07021225 293.28758686 -207.98467881 297.69985569 -212.81640625 302.25390625 C-213.54871964 302.94376114 -214.28103302 303.63361603 -215.03553772 304.34437561 C-223.50841911 312.36967769 -231.72384461 320.64859682 -239.9375 328.9375 C-242.94373798 331.97032225 -245.95330914 334.99978206 -248.96484375 338.02734375 C-249.64489975 338.71569809 -250.32495575 339.40405243 -251.02561951 340.11326599 C-251.65130325 340.74225296 -252.276987 341.37123993 -252.92163086 342.01928711 C-253.4699205 342.57281357 -254.01821014 343.12634003 -254.58311462 343.69664001 C-256.87287775 345.80293999 -258.14220341 346.0160985 -261.3125 346.375 C-265 346 -265 346 -267.9375 344.125 C-273.17771136 336.18528582 -269.40297746 321.35367835 -268.72265625 312.11328125 C-268.59028693 310.28348012 -268.45816531 308.45366106 -268.32627869 306.62382507 C-268.050272 302.80528157 -267.77180131 298.98692848 -267.49145508 295.16870117 C-267.13314268 290.28688594 -266.7802217 285.40469931 -266.42903996 280.52236652 C-266.15724039 276.75006006 -265.88299166 272.9779348 -265.60796928 269.20586205 C-265.47694713 267.40586296 -265.3465838 265.60581578 -265.21690559 263.80571938 C-265.03512789 261.28867117 -264.8501472 258.77187803 -264.66430664 256.25512695 C-264.58554291 255.15227608 -264.58554291 255.15227608 -264.50518799 254.02714539 C-263.50886856 240.70283628 -263.50886856 240.70283628 -258.9375 236.5 C-257.70193359 235.34564453 -257.70193359 235.34564453 -256.44140625 234.16796875 C-253.77971251 231.80438471 -251.11487825 229.44773411 -248.4140625 227.12890625 C-245.13145615 224.23405114 -241.94350833 221.24249035 -238.75 218.25 C-232.20724476 212.12107666 -225.61897609 206.0465241 -219 200 C-217.02006088 198.18834256 -215.04107092 196.37565154 -213.0625 194.5625 C-212.56911133 194.11036133 -212.07572266 193.65822266 -211.56738281 193.19238281 C-205.69756254 187.81012711 -199.84908666 182.40476435 -194 177 C-187.18449837 170.7022338 -180.36356557 164.41077982 -173.51928711 158.14428711 C-169.83772489 154.7719882 -166.1669253 151.38820414 -162.5 148 C-157.85011419 143.70354969 -153.18896933 139.41971598 -148.51953125 135.14453125 C-144.83790953 131.77212711 -141.16700977 128.38828219 -137.5 125 C-132.85011419 120.70354969 -128.18896933 116.41971598 -123.51953125 112.14453125 C-119.83790953 108.77212711 -116.16700977 105.38828219 -112.5 102 C-108.34155071 98.15763236 -104.17585614 94.32344285 -100 90.5 C-95.64027909 86.506008 -91.28529042 82.50697818 -86.9375 78.5 C-86.38900391 77.99533203 -85.84050781 77.49066406 -85.27539062 76.97070312 C-83.84575512 75.65200304 -82.42254587 74.32634492 -81 73 C-80.38253906 72.4534375 -79.76507813 71.906875 -79.12890625 71.34375 C-77.67837786 69.90967274 -77.67837786 69.90967274 -78 67 C-82.26272209 67.58287393 -85.15944297 69.07302046 -88.8046875 71.32421875 C-89.35653214 71.66203873 -89.90837677 71.9998587 -90.47694397 72.34791565 C-92.28063995 73.45421671 -94.07773354 74.57078997 -95.875 75.6875 C-97.13569388 76.46330532 -98.39684872 77.23836202 -99.65844727 78.01269531 C-102.21953594 79.58567055 -104.7783472 81.16225195 -107.33544922 82.74169922 C-111.58264694 85.36268205 -115.84871101 87.95218818 -120.11645508 90.53955078 C-129.02602079 95.94157738 -137.89585982 101.4051298 -146.74707031 106.90209961 C-154.62741796 111.78741732 -162.55352218 116.59642531 -170.48348999 121.40054321 C-179.00990009 126.56679882 -187.51491541 131.76600985 -196 137 C-205.56503996 142.89966601 -215.15908013 148.74917238 -224.77050781 154.57275391 C-233.20108126 159.68183969 -241.60967883 164.82494789 -250 170 C-258.97770011 175.53734058 -267.97884936 181.03390271 -277 186.5 C-286.43638981 192.21816662 -295.8543812 197.96506064 -305.25 203.75 C-306.84714844 204.73323242 -306.84714844 204.73323242 -308.4765625 205.73632812 C-309.47945312 206.35443359 -310.48234375 206.97253906 -311.515625 207.609375 C-312.94165039 208.47079102 -312.94165039 208.47079102 -314.39648438 209.34960938 C-316.97556664 210.92301305 -316.97556664 210.92301305 -319.11914062 212.66601562 C-321.75348163 214.6811397 -323.70040909 216.15260309 -327.10798645 215.75247192 C-328.30713936 215.38990799 -328.30713936 215.38990799 -329.53051758 215.02001953 C-330.50677094 214.7267981 -331.48302429 214.43357666 -332.48886108 214.13146973 C-340.16711118 211.65714224 -347.82180404 209.12012801 -355.46484375 206.5390625 C-357.34846441 205.90498844 -359.23213745 205.27106994 -361.11585999 204.63729858 C-365.04923534 203.31306593 -368.98179547 201.98644599 -372.91381836 200.65820312 C-377.92260086 198.96652339 -382.93363166 197.28161725 -387.94533443 195.59861183 C-391.83197338 194.29242217 -395.71724484 192.98220223 -399.60214424 191.67084885 C-401.44784768 191.04843871 -403.29399279 190.42733654 -405.14060783 189.80763626 C-413.12759912 187.1255011 -421.11856849 184.43994321 -428.97485352 181.39208984 C-429.86535904 181.04673187 -430.75586456 180.7013739 -431.6733551 180.34555054 C-435.13987109 178.34078717 -437.22271164 175.55457671 -439 172 C-439.50839958 166.89933533 -439.572489 162.40520027 -437.625 157.625 C-431.34757179 151.34757179 -421.82061821 148.62137905 -413.64453125 145.55078125 C-412.56604416 145.14081909 -411.48755707 144.73085693 -410.37638855 144.30847168 C-406.85687242 142.97173397 -403.33468943 141.64217584 -399.8125 140.3125 C-397.33636808 139.37321467 -394.86041668 138.43347025 -392.38476562 137.49291992 C-388.59882598 136.05492696 -384.8127273 134.61736222 -381.02566528 133.18232727 C-370.29473725 129.11598898 -359.57570196 125.01909286 -348.86117554 120.90975952 C-345.02285507 119.43776536 -341.18400434 117.96715669 -337.34516907 116.49650574 C-334.4787566 115.39836484 -331.61241837 114.30003033 -328.74609375 113.20166016 C-319.97971154 109.8425704 -311.21259954 106.48538614 -302.44555664 103.12802124 C-297.54700921 101.2520887 -292.64850684 99.37603852 -287.75 97.5 C-285.79166688 96.74999943 -283.83333355 95.99999943 -281.875 95.25 C-280.905625 94.87875 -279.93625 94.5075 -278.9375 94.125 C-129.12499999 36.75 -129.12499999 36.75 -126.18792725 35.62516785 C-124.228166 34.87461817 -122.26840852 34.12405867 -120.30865479 33.37348938 C-115.4346992 31.50681912 -110.56067989 29.64031563 -105.68652344 27.77416992 C-96.61360389 24.30026362 -87.54130113 20.82477351 -78.47119141 17.34353638 C-74.24641864 15.72212297 -70.021293 14.10163018 -65.79614258 12.48120117 C-63.80687228 11.7179859 -61.81776965 10.95433344 -59.82885742 10.19018555 C-50.05217432 6.43406244 -40.26811399 2.69802048 -30.453125 -0.95703125 C-29.67241638 -1.25059006 -28.89170776 -1.54414886 -28.08734131 -1.84660339 C-18.2371658 -5.49102126 -8.99816661 -6.40113479 0 0 Z " fill="#FFFFFF" transform="translate(471,73)"/>
</svg>
